<?xml version="1.0" encoding="UTF-8" standalone="no"?>
<svg
   viewBox="0 0 29.302197 27.906819"
   version="1.1"
   id="svg1028"
   sodipodi:docname="line.svg"
   inkscape:version="1.1.2 (0a00cf5339, 2022-02-04, custom)"
   width="29.302197"
   height="27.90682"
   xmlns:inkscape="http://www.inkscape.org/namespaces/inkscape"
   xmlns:sodipodi="http://sodipodi.sourceforge.net/DTD/sodipodi-0.dtd"
   xmlns="http://www.w3.org/2000/svg"
   xmlns:svg="http://www.w3.org/2000/svg">
  <sodipodi:namedview
     id="namedview1030"
     pagecolor="#ffffff"
     bordercolor="#666666"
     borderopacity="1.0"
     inkscape:pageshadow="2"
     inkscape:pageopacity="0.0"
     inkscape:pagecheckerboard="0"
     showgrid="false"
     inkscape:zoom="2.5333333"
     inkscape:cx="-84.078948"
     inkscape:cy="10.263158"
     inkscape:window-width="1880"
     inkscape:window-height="1013"
     inkscape:window-x="20"
     inkscape:window-y="47"
     inkscape:window-maximized="1"
     inkscape:current-layer="svg1028"
     fit-margin-top="0"
     fit-margin-left="0"
     fit-margin-right="0"
     fit-margin-bottom="0" />
  <defs
     id="defs948">
    <style
       id="style943">.f,.g,.h{fill-rule:evenodd;}.f,.i{fill:#d7000f;}.j{stroke:#eaf6fd;stroke-miterlimit:10;}.j,.k{fill:none;}.g{fill:#fff;}.l{clip-path:url(#e);}.m,.h{fill:#eaf6fd;}</style>
    <clipPath
       id="e">
      <path
         class="k"
         d="m 341.2,77.23 h -21.36 c -1.8,0 -3.27,1.47 -3.27,3.27 v 21.36 c 0,1.8 1.47,3.27 3.27,3.27 h 21.36 c 1.8,0 3.27,-1.47 3.27,-3.27 V 80.5 c 0,-1.8 -1.47,-3.27 -3.27,-3.27 z"
         id="path945" />
    </clipPath>
  </defs>
  <path
     class="h"
     d="m 29.302197,11.425397 c 0,2.74 -0.79,4.75 -2.14,6.55 -0.91,1.22 -1.97,2.3 -3.12,3.3 -2.45,2.12 -5.1,3.97 -7.89,5.62 -0.57,0.34 -1.18,0.61 -1.78,0.9 -0.14,0.07 -0.3,0.1 -0.45,0.11 -0.39,0.02 -0.59,-0.17 -0.54,-0.63 0.04,-0.42 0.12,-0.84 0.19,-1.26 0.08,-0.47 0.14,-0.95 0.07,-1.43 -0.04,-0.33 -0.24,-0.54 -0.52,-0.69 -0.38,-0.21 -0.8,-0.29 -1.23,-0.36 -1.29,-0.19 -2.5400001,-0.53 -3.7600001,-1.02 -1.47,-0.59 -2.82,-1.37 -4.03,-2.39 -1.95,-1.65 -3.31000002,-3.67 -3.88000002,-6.19 -0.2,-0.88 -0.26,-1.78 -0.2,-2.67 0.15,-2.1799997 0.96,-4.1099997 2.32000002,-5.8199997 1.45,-1.81 3.28,-3.11 5.4,-4.04 1.89,-0.82999996 3.8700001,-1.26999996 5.9300001,-1.37999996 3.19,-0.16 6.22,0.43 9.05,1.93999996 2.18,1.17 3.97,2.76 5.22,4.92 0.89,1.55 1.35,3.2099997 1.35,4.5399997 z m -14.69,0.05 c 0.99,1.34 1.94,2.64 2.89,3.94 0.16,0.22 0.36,0.37 0.63,0.38 0.48,0.03 0.85,-0.36 0.85,-0.88 0,-1.88 0,-3.77 0,-5.6599997 0,-0.05 0,-0.09 0,-0.14 -0.04,-0.33 -0.21,-0.57 -0.52,-0.69 -0.3,-0.12 -0.58,-0.06 -0.82,0.16 -0.2,0.19 -0.26,0.43 -0.26,0.69 0,1.0399997 0,2.0899997 0,3.1299997 v 0.26 c -0.06,-0.07 -0.09,-0.11 -0.12,-0.15 -0.63,-0.85 -1.25,-1.7 -1.87,-2.5499997 -0.3,-0.41 -0.6,-0.82 -0.89,-1.22 -0.2,-0.28 -0.47,-0.42 -0.82,-0.36 -0.3,0.05 -0.51,0.23 -0.6,0.53 -0.04,0.14 -0.05,0.28 -0.05,0.42 0,1.8299997 0,3.6699997 0,5.4999997 0,0.14 0.01,0.28 0.05,0.41 0.11,0.36 0.5,0.6 0.86,0.54 0.37,-0.06 0.68,-0.41 0.69,-0.8 0,-0.69 0,-1.38 0,-2.07 v -1.45 z m 6.94,-1.5099997 h 0.2 c 0.64,0 1.29,0 1.93,0 0.42,0 0.76,-0.35 0.76,-0.79 0,-0.44 -0.33,-0.79 -0.76,-0.79 -0.99,0 -1.97,0 -2.96,0 -0.42,0 -0.75,0.34 -0.75,0.75 0,1.9599997 0,3.9299997 0,5.8899997 0,0.42 0.34,0.77 0.76,0.77 0.98,0 1.97,0 2.96,0 0.4,0 0.75,-0.36 0.75,-0.76 0,-0.46 -0.29,-0.81 -0.72,-0.82 -0.65,-0.01 -1.3,0 -1.95,0 h -0.22 v -1.33 h 0.21 c 0.63,0 1.26,0 1.89,0 0.44,0 0.79,-0.34 0.79,-0.75 0,-0.48 -0.29,-0.82 -0.76,-0.82 -0.64,0 -1.27,0 -1.91,0 h -0.22 V 9.9753973 Z M 6.8121969,14.215397 v -0.26 c 0,-1.58 0,-3.17 0,-4.7499997 0,-0.48 -0.36,-0.83 -0.84,-0.82 -0.43,0.01 -0.74,0.36 -0.74,0.85 0,1.9099997 0,3.8099997 0,5.7199997 0,0.05 0,0.09 0,0.14 0.03,0.37 0.37,0.71 0.74,0.71 1,0 2,0 3,0 0.47,0 0.84,-0.51 0.72,-0.96 -0.1,-0.4 -0.37,-0.61 -0.79,-0.62 -0.69,0 -1.38,0 -2.09,0 z m 5.1600001,-2.12 c 0,-0.95 0,-1.9 0,-2.8599997 0,-0.38 -0.21,-0.69 -0.54,-0.81 -0.53,-0.19 -1.06,0.21 -1.06,0.83 0,1.8899997 0,3.7799997 0,5.6699997 0,0.15 0.04,0.3 0.1,0.43 0.15,0.32 0.55,0.5 0.85,0.42 0.38,-0.09 0.64,-0.43 0.65,-0.81 0,-0.96 0,-1.92 0,-2.88 z"
     id="path1009"
     style="fill:#ffffff;fill-opacity:1" />
</svg>
