<?xml version="1.0" encoding="UTF-8"?><svg xmlns="http://www.w3.org/2000/svg" xmlns:xlink="http://www.w3.org/1999/xlink" viewBox="0 0 27.9 27.9"><defs><style>.f{fill:#fff;}.f,.g,.h{fill-rule:evenodd;}.g{fill:#40ae36;}.i{clip-path:url(#e);}.j{fill:none;}.h{fill:#39ad36;}</style><clipPath id="e"><path class="j" d="M24.63,0H3.27C1.47,0,0,1.47,0,3.27V24.63c0,1.8,1.47,3.27,3.27,3.27H24.63c1.8,0,3.27-1.47,3.27-3.27V3.27c0-1.8-1.47-3.27-3.27-3.27Z"/></clipPath></defs><g id="a"/><g id="b"><g id="c"><g id="d"><g class="i"><g><path class="h" d="M0,27.9V0H27.9V27.9H0Z"/><path class="f" d="M24.07,12.35c0,1.89-.54,3.28-1.48,4.53-.63,.84-1.36,1.59-2.16,2.28-1.69,1.47-3.53,2.74-5.45,3.88-.39,.23-.82,.42-1.23,.62-.09,.05-.21,.07-.31,.08-.27,.01-.4-.12-.37-.43,.03-.29,.08-.58,.13-.87,.06-.33,.1-.65,.05-.99-.03-.23-.17-.38-.36-.48-.27-.14-.56-.2-.85-.25-.89-.13-1.76-.37-2.6-.7-1.01-.4-1.95-.94-2.78-1.65-1.34-1.14-2.29-2.54-2.68-4.28-.14-.61-.18-1.23-.14-1.85,.11-1.51,.66-2.84,1.61-4.02,1-1.25,2.27-2.15,3.73-2.79,1.31-.57,2.68-.88,4.1-.95,2.2-.11,4.3,.3,6.25,1.34,1.51,.81,2.75,1.91,3.61,3.4,.62,1.07,.93,2.22,.94,3.14Zm-10.15,.03c.68,.93,1.34,1.83,2,2.72,.11,.15,.25,.25,.44,.27,.33,.02,.59-.25,.59-.61,0-1.3,0-2.61,0-3.91,0-.03,0-.06,0-.09-.03-.23-.15-.39-.36-.48-.21-.08-.4-.04-.57,.11-.14,.13-.18,.3-.18,.48,0,.72,0,1.44,0,2.17v.18c-.04-.05-.06-.08-.08-.1-.43-.59-.86-1.18-1.3-1.77-.21-.28-.41-.56-.62-.85-.14-.19-.32-.29-.56-.25-.21,.04-.36,.16-.42,.37-.03,.09-.04,.2-.04,.29,0,1.27,0,2.53,0,3.8,0,.09,0,.19,.04,.28,.08,.25,.35,.41,.59,.38,.26-.04,.47-.29,.47-.55,0-.48,0-.95,0-1.43v-1Zm4.79-1.05h.14c.44,0,.89,0,1.33,0,.29,0,.52-.24,.52-.54s-.23-.54-.52-.54c-.68,0-1.36,0-2.04,0-.29,0-.52,.23-.52,.52,0,1.36,0,2.71,0,4.07,0,.29,.24,.53,.52,.53,.68,0,1.36,0,2.04,0,.28,0,.52-.25,.52-.52,0-.32-.2-.56-.5-.56-.45,0-.9,0-1.35,0h-.15v-.92h.14c.44,0,.87,0,1.31,0,.3,0,.54-.23,.55-.52,0-.33-.2-.56-.52-.57-.44,0-.88,0-1.32,0h-.15v-.92Zm-10.19,2.94v-.18c0-1.09,0-2.19,0-3.28,0-.33-.25-.57-.58-.57-.3,0-.51,.25-.51,.58,0,1.32,0,2.63,0,3.95,0,.03,0,.06,0,.1,.02,.26,.25,.49,.51,.49,.69,0,1.38,0,2.07,0,.32,0,.58-.35,.5-.66-.07-.28-.26-.42-.55-.43-.48,0-.95,0-1.45,0Zm3.57-1.46c0-.66,0-1.32,0-1.97,0-.26-.14-.48-.37-.56-.37-.13-.73,.14-.74,.57,0,1.31,0,2.61,0,3.92,0,.1,.03,.21,.07,.3,.1,.22,.38,.35,.59,.29,.26-.07,.44-.29,.45-.56,0-.66,0-1.33,0-1.99Z"/><path class="g" d="M13.92,12.38v1c0,.48,0,.95,0,1.43,0,.27-.22,.51-.47,.55-.25,.04-.51-.12-.59-.38-.03-.09-.04-.19-.04-.28,0-1.27,0-2.53,0-3.8,0-.1,0-.2,.04-.29,.06-.2,.21-.33,.42-.37,.24-.04,.42,.06,.56,.25,.21,.28,.41,.56,.62,.85,.43,.59,.86,1.18,1.3,1.77,.02,.03,.04,.05,.08,.1v-.18c0-.72,0-1.44,0-2.17,0-.18,.04-.35,.18-.48,.16-.15,.36-.19,.57-.11,.21,.08,.33,.25,.36,.48,0,.03,0,.06,0,.09,0,1.3,0,2.61,0,3.91,0,.36-.25,.62-.59,.61-.19-.01-.33-.12-.44-.27-.66-.9-1.32-1.79-2-2.72Z"/><path class="g" d="M18.72,11.34v.92h.15c.44,0,.88,0,1.32,0,.32,0,.53,.24,.52,.57,0,.29-.25,.52-.55,.52-.44,0-.87,0-1.31,0h-.14v.92h.15c.45,0,.9,0,1.35,0,.3,0,.5,.25,.5,.56,0,.28-.24,.52-.52,.52-.68,0-1.36,0-2.04,0-.29,0-.52-.24-.52-.53,0-1.36,0-2.71,0-4.07,0-.29,.23-.52,.52-.52,.68,0,1.36,0,2.04,0,.3,0,.52,.24,.52,.54s-.23,.54-.52,.54c-.44,0-.89,0-1.33,0h-.14Z"/><path class="g" d="M8.53,14.27c.49,0,.97,0,1.45,0,.29,0,.48,.15,.55,.43,.08,.31-.18,.66-.5,.66-.69,0-1.38,0-2.07,0-.26,0-.49-.23-.51-.49,0-.03,0-.06,0-.1,0-1.32,0-2.63,0-3.95,0-.33,.22-.58,.51-.58,.33,0,.58,.23,.58,.57,0,1.09,0,2.19,0,3.28v.18Z"/><path class="g" d="M12.1,12.81c0,.66,0,1.33,0,1.99,0,.27-.19,.5-.45,.56-.21,.05-.49-.07-.59-.29-.04-.09-.07-.2-.07-.3,0-1.31,0-2.61,0-3.92,0-.43,.37-.71,.74-.57,.23,.08,.37,.3,.37,.56,0,.66,0,1.32,0,1.97Z"/></g></g></g></g></g></svg>