<?xml version="1.0" encoding="UTF-8"?><svg xmlns="http://www.w3.org/2000/svg" xmlns:xlink="http://www.w3.org/1999/xlink" viewBox="0 0 27.9 27.9"><defs><style>.f{clip-path:url(#e);}.g{fill:none;}.h{fill:#eaf6fd;}.i{fill:#29abe2;}</style><clipPath id="e"><path class="g" d="M24.63,0H3.27C1.47,0,0,1.47,0,3.27V24.63c0,1.8,1.47,3.27,3.27,3.27H24.63c1.8,0,3.27-1.47,3.27-3.27V3.27c0-1.8-1.47-3.27-3.27-3.27Z"/></clipPath></defs><g id="a"/><g id="b"><g id="c"><g id="d"><g class="f"><g><rect class="i" width="27.9" height="27.9"/><path class="h" d="M24.15,7.97s-1.53,.67-2.2,.66c-.02-.04-.03-.08-.05-.12,.37-.31,1.53-1.32,1.67-2.1,0,0-1.43,.79-2.37,1-.76-.86-1.87-1.4-3.11-1.4-2.3,0-4.16,1.86-4.16,4.16,0,.28,.03,.56,.08,.83-1.44-.04-4.98-.54-8.29-4.29,0,0-1.79,3.18,1.21,5.55,0,0-1.04,.12-1.68-.52,0,0-.29,2.6,2.95,4.04,0,0-.87,.29-1.56,.17,0,0,.58,2.37,3.7,2.83,0,0-2.08,1.85-5.78,1.62,0,0,4.33,3.06,10.63,.92,6.3-2.14,7.16-9.99,7.05-11.15,0,0,1.27-.92,1.91-2.2Z"/></g></g></g></g></g></svg>