<?xml version="1.0" encoding="UTF-8"?><svg xmlns="http://www.w3.org/2000/svg" xmlns:xlink="http://www.w3.org/1999/xlink" viewBox="0 0 27.9 27.9"><defs><style>.f{fill:#e31e20;}.f,.g{fill-rule:evenodd;}.g{fill:#fff;}.h{clip-path:url(#e);}.i{fill:none;}.j{fill:#d53029;}</style><clipPath id="e"><path class="i" d="M24.63,0H3.27C1.47,0,0,1.47,0,3.27V24.63c0,1.8,1.47,3.27,3.27,3.27H24.63c1.8,0,3.27-1.47,3.27-3.27V3.27c0-1.8-1.47-3.27-3.27-3.27Z"/></clipPath></defs><g id="a"/><g id="b"><g id="c"><g id="d"><g class="h"><g><rect class="j" width="27.9" height="27.9"/><g><path class="g" d="M22.65,13.95c0,1.36,0,2.8-.3,4.11-.21,.93-.97,1.61-1.88,1.71-2.16,.24-4.34,.24-6.52,.24-2.18,0-4.36,0-6.52-.24-.91-.1-1.67-.78-1.88-1.71-.3-1.32-.3-2.76-.3-4.11s0-2.8,.31-4.12c.21-.93,.97-1.61,1.88-1.71,2.16-.24,4.34-.24,6.52-.24,2.17,0,4.36,0,6.52,.24,.91,.1,1.67,.78,1.88,1.71,.3,1.32,.3,2.76,.3,4.12"/><polygon class="f" points="11.61 10.59 17.43 13.95 11.61 17.31 11.61 10.59"/></g></g></g></g></g></g></svg>