<svg version="1.1" id="svg950" width="74.17" height="45" xmlns="http://www.w3.org/2000/svg"><defs id="defs899"><style id="style897">.ad{fill:#fff}</style></defs><g id="g" transform="scale(1.00006)" style="fill:#fff;fill-opacity:1;fill-rule:nonzero;stroke:none;stroke-opacity:1"><path id="h" class="ad" d="M9.98 24.71c2.8-2.52 7.09-2.37 9.72.34-.82-2.97-.68-6.11.4-9 .8-1.94 1.07-11.3-7.24-15.98 2.09 5.53.86 11.76-3.18 16.09.93 2.76 1.03 5.74.3 8.56z" style="fill:#fff;fill-opacity:1;fill-rule:nonzero;stroke:none;stroke-opacity:1"/><path id="i" class="ad" d="M8.87 26.13s3.75-9.16-3.76-15.88c.72 3.65.04 7.44-1.92 10.61-1.67 2.69-5.2 7.62-1.69 15.79.99-4.33 3.64-8.11 7.37-10.52z" style="fill:#fff;fill-opacity:1;fill-rule:nonzero;stroke:none;stroke-opacity:1"/><path id="j" class="ad" d="M8.47 27.09c-3.5 2.44-5.85 6.22-6.48 10.44 1.95 3.32 5.1 5.76 8.8 6.83.82-3.35.4-6.89-1.18-9.96a7.234 7.234 0 0 1-1.14-7.31Z" style="fill:#fff;fill-opacity:1;fill-rule:nonzero;stroke:none;stroke-opacity:1"/><path id="k" class="ad" d="M11.32 37.28c.65 2.37.67 4.86.07 7.25 3.42.83 7.03.38 10.15-1.25 0 0-6.62-1.19-10.22-6z" style="fill:#fff;fill-opacity:1;fill-rule:nonzero;stroke:none;stroke-opacity:1"/><path id="l" class="ad" d="M10.86 35.48a6.876 6.876 0 0 0 9.01-1.13c1.56 2.54 2.39 5.47 2.38 8.45 0 0-7.69-.56-11.4-7.32z" style="fill:#fff;fill-opacity:1;fill-rule:nonzero;stroke:none;stroke-opacity:1"/><path id="m" class="ad" d="M20.36 34.05c1.65 2.51 2.52 5.46 2.5 8.46 5.12-3.32 7.67-9.45 6.42-15.42a16.934 16.934 0 0 1-8.92 6.96z" style="fill:#fff;fill-opacity:1;fill-rule:nonzero;stroke:none;stroke-opacity:1"/><path id="n" class="ad" d="M20.65 33.3c3.6-1.19 6.59-3.72 8.36-7.08-.54-1.86-1.41-3.61-2.56-5.17a15.104 15.104 0 0 1-2.21-10.4 14.606 14.606 0 0 0-3.39 15.93c1.05 2.13.97 4.65-.21 6.71z" style="fill:#fff;fill-opacity:1;fill-rule:nonzero;stroke:none;stroke-opacity:1"/></g><g id="p" transform="matrix(.89589 0 0 .90025 4.863 0)" style="fill:#fff;fill-opacity:1;fill-rule:nonzero;stroke:none;stroke-opacity:1"><g id="q" transform="translate(741.518 735.573)" style="fill:#fff;fill-opacity:1;fill-rule:nonzero;stroke:none;stroke-opacity:1"><g id="r" transform="translate(-741.518 -735.573)" style="fill:#fff;fill-opacity:1;fill-rule:nonzero;stroke:none;stroke-opacity:1"><path class="ad" d="M50.22 12.73h-1.93V2.89h.05l1.8-.37.08-.02Zm2.06-10.8h-6.23V0h6.62l-.02.08-.36 1.8v.05z" id="path912" style="fill:#fff;fill-opacity:1;fill-rule:nonzero;stroke:none;stroke-opacity:1"/></g><g id="s" transform="translate(-740.439 -735.053)" style="fill:#fff;fill-opacity:1;fill-rule:nonzero;stroke:none;stroke-opacity:1"><path class="ad" d="M56.63 12.91h-.44l.02-.08.36-1.8v-.05h.06c.47 0 .84-.37.84-.84V3.6h1.93v6.54c0 1.52-1.24 2.76-2.76 2.76zm-1.31-.16-.06-.02c-1.01-.38-1.75-1.47-1.75-2.58V3.6h1.93v6.54c0 .32.17.6.43.73l.05.02-.02.05-.56 1.73-.02.06z" id="path915" style="fill:#fff;fill-opacity:1;fill-rule:nonzero;stroke:none;stroke-opacity:1"/></g><g id="t" transform="translate(-739.36 -735.053)" style="fill:#fff;fill-opacity:1;fill-rule:nonzero;stroke:none;stroke-opacity:1"><path class="ad" d="M62.91 12.73h-1.93V3.6h1.93zm.56-6.77.03-.14.36-1.8v-.03h.03c.47-.3.75-.38 1.2-.38h1.25l-.02.08-.36 1.8v.05h-1.14c-.5 0-.77.08-1.23.35z" id="path918" style="fill:#fff;fill-opacity:1;fill-rule:nonzero;stroke:none;stroke-opacity:1"/></g><g id="u" transform="translate(-738.45 -735.053)" style="fill:#fff;fill-opacity:1;fill-rule:nonzero;stroke:none;stroke-opacity:1"><path class="ad" d="M73.16 12.73h-1.93V6.36c0-.45-.38-.84-.84-.84h-.62l.02-.08.36-1.8v-.05h.24c1.52 0 2.76 1.24 2.76 2.76v6.36zm-3.96 0h-1.93V3.6h1.93z" id="path921" style="fill:#fff;fill-opacity:1;fill-rule:nonzero;stroke:none;stroke-opacity:1"/></g></g><g id="v" transform="translate(742.081 747.981)" style="fill:#fff;fill-opacity:1;fill-rule:nonzero;stroke:none;stroke-opacity:1"><g id="w" transform="translate(-741.977 -745.611)" style="fill:#fff;fill-opacity:1;fill-rule:nonzero;stroke:none;stroke-opacity:1"><path class="ad" d="M48.69 28.77h-1.93v-9.13h1.93zm0-10.44h-1.93V16.4h1.93z" id="path925" style="fill:#fff;fill-opacity:1;fill-rule:nonzero;stroke:none;stroke-opacity:1"/></g><g id="x" transform="translate(-741.574 -745.689)" style="fill:#fff;fill-opacity:1;fill-rule:nonzero;stroke:none;stroke-opacity:1"><path class="ad" d="M53.99 28.95h-.05c-1.68 0-2.94-1.19-2.94-2.76v-3.65h.05l1.8-.37.08-.02v4.04c0 .47.37.83.83.83h.62l-.02.08-.36 1.8v.05zm-.01-7.38h-4.45l.02-.08.36-1.8v-.05h1.08v-3.41h.05l1.8-.37.08-.02v3.79h1.45l-.02.08-.36 1.8v.05z" id="path928" style="fill:#fff;fill-opacity:1;fill-rule:nonzero;stroke:none;stroke-opacity:1"/></g></g><g id="y" transform="translate(741.94 760.53)" style="fill:#fff;fill-opacity:1;fill-rule:nonzero;stroke:none;stroke-opacity:1"><g id="a`" transform="translate(-741.862 -755.92)" style="fill:#fff;fill-opacity:1;fill-rule:nonzero;stroke:none;stroke-opacity:1"><path class="ad" d="M50.43 45h-1.08c-1.52 0-2.76-1.24-2.76-2.76v-7.56c0-1.52 1.24-2.76 2.76-2.76h1.16l-.02.08-.36 1.8v.05h-.78c-.47 0-.83.37-.83.84v7.56c0 .47.37.84.83.84h1.08c.47 0 .83-.37.83-.84v-7.56c0-.32-.17-.6-.43-.73l-.05-.02.02-.05.56-1.73.02-.06.06.02c1.01.38 1.75 1.47 1.75 2.58v7.56c0 1.52-1.24 2.76-2.76 2.76z" id="path932" style="fill:#fff;fill-opacity:1;fill-rule:nonzero;stroke:none;stroke-opacity:1"/></g><g id="aa" transform="translate(-740.731 -755.374)" style="fill:#fff;fill-opacity:1;fill-rule:nonzero;stroke:none;stroke-opacity:1"><path class="ad" d="M58.38 44.82h-2.13l.07-.1s2.06-3.16 2.06-5.36V35.7h1.93v3.66c0 2.69-1.88 5.41-1.9 5.44l-.02.03zm-2.47-.67-.07-.12c-.93-1.68-1.43-3.3-1.43-4.67V35.7h1.93v3.66c0 .83.26 1.64.52 2.32v.05l-.9 2.3-.05.13z" id="path935" style="fill:#fff;fill-opacity:1;fill-rule:nonzero;stroke:none;stroke-opacity:1"/></g><g id="ab" transform="translate(-739.704 -755.4)" style="fill:#fff;fill-opacity:1;fill-rule:nonzero;stroke:none;stroke-opacity:1"><path class="ad" d="M66.67 44.82h-2.39c-1.52 0-2.76-1.24-2.76-2.76v-3.78c0-1.6 1.24-2.76 2.94-2.76s2.94 1.16 2.94 2.76v2.94h-3.38l.02-.08.36-1.8v-.05h1.08v-1.02c0-.55-.34-.84-1.02-.84-.68 0-1.02.28-1.02.84v3.78c0 .47.37.83.84.83h2.78l-.02.08-.36 1.8v.05z" id="path938" style="fill:#fff;fill-opacity:1;fill-rule:nonzero;stroke:none;stroke-opacity:1"/></g><g id="ac" transform="translate(-738.651 -755.374)" style="fill:#fff;fill-opacity:1;fill-rule:nonzero;stroke:none;stroke-opacity:1"><path class="ad" d="M70.73 44.82H68.8v-9.13h1.93zm.56-6.77.03-.14.36-1.8v-.03h.03c.47-.3.75-.38 1.2-.38h1.25l-.02.08-.36 1.8v.05h-1.14c-.5 0-.77.08-1.23.35z" id="path941" style="fill:#fff;fill-opacity:1;fill-rule:nonzero;stroke:none;stroke-opacity:1"/></g></g></g></svg>