<svg xmlns="http://www.w3.org/2000/svg" viewBox="0 0 27.9 27.9"><defs><clipPath id="a"><path d="M24.63 0H3.27C1.47 0 0 1.47 0 3.27v21.36c0 1.8 1.47 3.27 3.27 3.27h21.36c1.8 0 3.27-1.47 3.27-3.27V3.27c0-1.8-1.47-3.27-3.27-3.27Z" style="fill:none"/></clipPath></defs><g style="clip-path:url(#a)"><path d="M0 27.9V0h27.9v27.9H0Z" style="fill:#39ad36;fill-rule:evenodd"/><path d="M24.07 12.35c0 1.89-.54 3.28-1.48 4.53-.63.84-1.36 1.59-2.16 2.28-1.69 1.47-3.53 2.74-5.45 3.88-.39.23-.82.42-1.23.62-.09.05-.21.07-.31.08-.27.01-.4-.12-.37-.43.03-.29.08-.58.13-.87.06-.33.1-.65.05-.99-.03-.23-.17-.38-.36-.48-.27-.14-.56-.2-.85-.25-.89-.13-1.76-.37-2.6-.7-1.01-.4-1.95-.94-2.78-1.65-1.34-1.14-2.29-2.54-2.68-4.28a6.4 6.4 0 0 1-.14-1.85c.11-1.51.66-2.84 1.61-4.02 1-1.25 2.27-2.15 3.73-2.79 1.31-.57 2.68-.88 4.1-.95 2.2-.11 4.3.3 6.25 1.34 1.51.81 2.75 1.91 3.61 3.4.62 1.07.93 2.22.94 3.14Zm-10.15.03c.68.93 1.34 1.83 2 2.72.11.15.25.25.44.27.33.02.59-.25.59-.61v-4a.57.57 0 0 0-.36-.48.525.525 0 0 0-.57.11c-.14.13-.18.3-.18.48v2.35c-.04-.05-.06-.08-.08-.1-.43-.59-.86-1.18-1.3-1.77-.21-.28-.41-.56-.62-.85-.14-.19-.32-.29-.56-.25-.21.04-.36.16-.42.37-.03.09-.04.2-.04.29v3.8c0 .09 0 .19.04.28.08.25.35.41.59.38.26-.04.47-.29.47-.55v-2.43Zm4.79-1.05h1.47c.29 0 .52-.24.52-.54s-.23-.54-.52-.54h-2.04c-.29 0-.52.23-.52.52v4.07c0 .29.24.53.52.53h2.04c.28 0 .52-.25.52-.52 0-.32-.2-.56-.5-.56h-1.5v-.92h1.45c.3 0 .54-.23.55-.52 0-.33-.2-.56-.52-.57h-1.47v-.92ZM8.52 14.27v-3.46a.56.56 0 0 0-.58-.57c-.3 0-.51.25-.51.58v4.05c.02.26.25.49.51.49h2.07c.32 0 .58-.35.5-.66-.07-.28-.26-.42-.55-.43H8.51Zm3.57-1.46v-1.97c0-.26-.14-.48-.37-.56-.37-.13-.73.14-.74.57v3.92c0 .1.03.21.07.3.1.22.38.35.59.29.26-.07.44-.29.45-.56v-1.99Z" style="fill-rule:evenodd;fill:#fff"/><path d="M13.92 12.38v2.43c0 .27-.22.51-.47.55a.541.541 0 0 1-.59-.38.903.903 0 0 1-.04-.28v-3.8c0-.1 0-.2.04-.29.06-.2.21-.33.42-.37.24-.04.42.06.56.25.21.28.41.56.62.85.43.59.86 1.18 1.3 1.77.02.03.04.05.08.1v-2.35c0-.18.04-.35.18-.48.16-.15.36-.19.57-.11.21.08.33.25.36.48v4c0 .36-.25.62-.59.61-.19-.01-.33-.12-.44-.27-.66-.9-1.32-1.79-2-2.72Zm4.8-1.04v.92h1.47c.32 0 .53.24.52.57 0 .29-.25.52-.55.52h-1.45v.92h1.5c.3 0 .5.25.5.56 0 .28-.24.52-.52.52h-2.04c-.29 0-.52-.24-.52-.53v-4.07c0-.29.23-.52.52-.52h2.04c.3 0 .52.24.52.54s-.23.54-.52.54h-1.47ZM8.53 14.27h1.45c.29 0 .48.15.55.43.08.31-.18.66-.5.66H7.96c-.26 0-.49-.23-.51-.49v-4.05c0-.33.22-.58.51-.58.33 0 .58.23.58.57v3.46Zm3.57-1.46v1.99c0 .27-.19.5-.45.56a.55.55 0 0 1-.59-.29.775.775 0 0 1-.07-.3v-3.92c0-.43.37-.71.74-.57.23.08.37.3.37.56v1.97Z" style="fill-rule:evenodd;fill:#40ae36"/></g></svg>