<svg xmlns="http://www.w3.org/2000/svg" xmlns:xlink="http://www.w3.org/1999/xlink" width="532.913" height="745.512"><defs><path d="M21.297-.422c-1.18.211-2.324.352-3.438.422a42.532 42.532 0 0 1-3.093.125 44.96 44.96 0 0 1-2.313-.063 22.137 22.137 0 0 1-2.14-.218 5.073 5.073 0 0 1-1.329-.36A3.628 3.628 0 0 1 7.75-1.39c-.367-.394-.668-.898-.906-1.515-.242-.625-.36-1.406-.36-2.344v-15.047h2.11v8.75a54.705 54.705 0 0 0 10.515-5.297l1.11 1.719a56.564 56.564 0 0 1-5.735 3.188 61.761 61.761 0 0 1-5.89 2.468v4.219c0 .617.054 1.121.172 1.516.113.386.265.695.453.921.195.22.414.376.656.47.238.085.488.148.75.187a30.19 30.19 0 0 0 1.938.203c.675.043 1.374.062 2.093.062.895 0 1.91-.039 3.047-.125a46.895 46.895 0 0 0 3.594-.406Zm0 0" id="a"/><path d="M12.844-17.688v2H5.516v-2Zm9.61 5.329a167.91 167.91 0 0 1-2.11 3.843 32.223 32.223 0 0 1-1.969 3.094 15.788 15.788 0 0 1-2.11 2.39 9.815 9.815 0 0 1-2.546 1.704c-.961.45-2.047.781-3.266 1C9.243-.11 7.832 0 6.22 0v-1.953c1.351 0 2.539-.082 3.562-.25 1.031-.164 1.953-.438 2.766-.813a8.623 8.623 0 0 0 2.187-1.437 13.69 13.69 0 0 0 1.875-2.172 30.793 30.793 0 0 0 1.86-2.953 259.464 259.464 0 0 0 2.125-3.813Zm0 0" id="b"/><path d="M10.938-13a74.82 74.82 0 0 1 4.906 2.594 98.222 98.222 0 0 1 4.953 3.047L19.64-5.641a44.365 44.365 0 0 0-2.313-1.593 80.558 80.558 0 0 0-2.187-1.36 55.403 55.403 0 0 0-2.11-1.234c-.687-.383-1.386-.77-2.094-1.156V.812h-2.03V-20.75h2.03Zm0 0" id="c"/><path d="M20.469-37.422c1.07 0 2.176.125 3.312.375 1.133.25 2.16.703 3.078 1.36.926.648 1.68 1.539 2.266 2.671.582 1.137.875 2.61.875 4.422V-7.78c0 2.406-.5 4.265-1.5 5.578C27.5-.898 25.992 0 23.984.5l2.25 5.219H22.22L20.266.797l-7.172.11c-1.074 0-2.172-.11-3.297-.329A7.785 7.785 0 0 1 6.75-.719c-.918-.656-1.672-1.539-2.266-2.656C3.898-4.5 3.61-5.969 3.61-7.781v-20.813c0-1.812.29-3.285.875-4.422.594-1.132 1.348-2.023 2.266-2.672a8.262 8.262 0 0 1 3.047-1.359 15.165 15.165 0 0 1 3.297-.375Zm5.468 8.969c0-1.863-.414-3.227-1.234-4.094-.812-.875-2.187-1.312-4.125-1.312h-7.484c-1.938 0-3.328.445-4.172 1.328-.836.886-1.25 2.246-1.25 4.078v20.469c0 1.273.164 2.289.5 3.046.344.75.781 1.329 1.312 1.735a4.371 4.371 0 0 0 1.75.797 8.795 8.795 0 0 0 1.86.203h5.922l-1.86-4.672h3.922l1.703 4.422c2.102-.602 3.157-2.445 3.157-5.531Zm0 0" id="d"/><path d="M12.344-37.938h2.812V.86h-3.765v-34.375L3.016-28.5v-3.61Zm0 0" id="e"/><path d="M5.313-26.14c.039-1.602.187-3.055.437-4.36a8.211 8.211 0 0 1 1.672-3.61 23.86 23.86 0 0 1 1.36-1.437c.53-.52 1.179-.988 1.952-1.406.77-.414 1.68-.766 2.735-1.047 1.05-.29 2.281-.438 3.687-.438 1.301 0 2.614.196 3.938.579a11.45 11.45 0 0 1 3.562 1.734 9 9 0 0 1 2.563 2.938c.656 1.187.984 2.585.984 4.187a9.944 9.944 0 0 1-.703 3.719 18.486 18.486 0 0 1-1.813 3.406 32.182 32.182 0 0 1-2.468 3.219 97.602 97.602 0 0 0-2.594 3.11 776.565 776.565 0 0 0-5.078 6.093 211.936 211.936 0 0 1-5.61 6.5h18.97V.703H5.171v-3.312a423.935 423.935 0 0 0 6.734-8.047 1610.23 1610.23 0 0 0 6.906-8.516 74.14 74.14 0 0 0 1.704-2.078 27.843 27.843 0 0 0 1.687-2.344c.52-.82.953-1.676 1.297-2.562a7.467 7.467 0 0 0 .531-2.75c0-1-.195-1.864-.578-2.594a5.246 5.246 0 0 0-1.562-1.828c-.649-.488-1.407-.848-2.282-1.078a10.143 10.143 0 0 0-2.703-.36c-1.375 0-2.562.227-3.562.672-1 .45-1.828 1.059-2.485 1.828-.648.774-1.14 1.684-1.484 2.735-.336 1.054-.5 2.183-.5 3.39Zm0 0" id="B"/><path d="M5.375-27.688c.094-3.351 1.145-5.984 3.156-7.89 2.008-1.906 4.817-2.86 8.422-2.86 1.438 0 2.82.196 4.156.579 1.344.386 2.524.98 3.547 1.78 1.02.806 1.836 1.821 2.453 3.048.625 1.218.938 2.648.938 4.281 0 2.105-.633 3.871-1.89 5.297-1.25 1.418-2.981 2.512-5.188 3.281 2.644.606 4.71 1.719 6.203 3.344 1.488 1.617 2.234 3.73 2.234 6.344 0 1.773-.328 3.386-.984 4.843a11.137 11.137 0 0 1-2.719 3.735C24.555-.863 23.203-.051 21.641.53c-1.555.582-3.23.875-5.032.875-.336 0-.87-.023-1.609-.062-.742-.032-1.578-.149-2.516-.344a13.77 13.77 0 0 1-2.906-1 9.229 9.229 0 0 1-2.75-2c-1.95-2.008-2.953-4.688-3.016-8.031h3.563c0 1.168.219 2.23.656 3.187a6.93 6.93 0 0 0 1.86 2.438c.8.668 1.754 1.195 2.859 1.578 1.102.387 2.305.578 3.61.578 1.195 0 2.335-.176 3.421-.531a8.314 8.314 0 0 0 2.86-1.563 7.308 7.308 0 0 0 1.937-2.531c.469-1 .703-2.172.703-3.516 0-1.195-.203-2.222-.61-3.078-.398-.851-.882-1.562-1.452-2.125a6.489 6.489 0 0 0-1.797-1.312 13.015 13.015 0 0 0-1.61-.657c-1-.3-2.007-.468-3.015-.5-1-.03-1.95 0-2.844.094v-3.656c1.906.168 3.5.059 4.781-.328 1.29-.383 2.32-.926 3.094-1.625.77-.707 1.313-1.504 1.625-2.39.32-.884.485-1.759.485-2.626a5.69 5.69 0 0 0-.579-2.562 6.067 6.067 0 0 0-1.593-1.985 7.432 7.432 0 0 0-2.328-1.28 8.74 8.74 0 0 0-2.829-.454 8.165 8.165 0 0 0-2.922.516 7.527 7.527 0 0 0-2.406 1.453 7.665 7.665 0 0 0-1.703 2.265c-.43.868-.68 1.852-.75 2.953Zm0 0" id="N"/><path d="M21.781-7.922V.86h-3.968v-8.78H.953v-3.173l16.61-26.687h4.109v26.39h7.234v3.47Zm-3.875-3.469v-21.015L4.97-11.391Zm0 0" id="O"/><path d="M10.438-34.219 10.28-22.53a192.6 192.6 0 0 0 1.375-.953 11.219 11.219 0 0 1 1.578-.891 9.71 9.71 0 0 1 1.938-.656c.719-.164 1.547-.25 2.484-.25.301 0 .688.015 1.157.047.468.03.984.109 1.546.234.57.117 1.18.293 1.828.531.657.23 1.32.559 2 .985 1.27.804 2.27 1.757 3 2.859.739 1.105 1.29 2.195 1.657 3.266.375 1.074.601 2.047.687 2.922.082.867.125 1.464.125 1.796 0 1.875-.32 3.657-.953 5.344-.637 1.688-1.531 3.18-2.687 4.469A12.741 12.741 0 0 1 21.844.219c-1.617.758-3.414 1.14-5.39 1.14-1.5 0-2.907-.218-4.22-.656a10.922 10.922 0 0 1-3.453-1.875 10.21 10.21 0 0 1-2.484-3.031C5.64-5.41 5.21-6.801 5.016-8.375h3.718c.164.867.442 1.68.829 2.438a7.04 7.04 0 0 0 1.5 1.984c.613.562 1.363 1.008 2.25 1.328.894.313 1.925.469 3.093.469 1.602 0 2.973-.305 4.11-.922 1.132-.625 2.07-1.426 2.812-2.406a9.976 9.976 0 0 0 1.625-3.344c.352-1.238.531-2.477.531-3.719 0-1.133-.164-2.254-.484-3.36a8.384 8.384 0 0 0-1.5-2.952 7.584 7.584 0 0 0-2.578-2.11c-1.043-.539-2.281-.812-3.719-.812-1.605 0-3.07.32-4.39.953-1.313.637-2.391 1.656-3.235 3.062H6.172l.344-20.109h20.218v3.656Zm0 0" id="P"/><path d="M6.281-7.406a65.61 65.61 0 0 1 2.344 1.281c.758.438 1.504.914 2.234 1.422l-.656.719a55.055 55.055 0 0 0-4.156-2.688 3.592 3.592 0 0 1-.703 1.094c-.293.312-.621.59-.985.828-.367.23-.757.43-1.171.594-.407.168-.82.312-1.235.437l-.531-.797a9.323 9.323 0 0 0 1.703-.515 4.28 4.28 0 0 0 1.297-.844c.363-.344.64-.758.828-1.25.195-.5.297-1.094.297-1.781v-.938h.906v.735c0 .28-.012.57-.031.859-.024.281-.07.563-.14.844Zm1.188.078a9.57 9.57 0 0 0 .937-.875c.29-.313.567-.64.828-.985l.813.454a8.4 8.4 0 0 1-.922 1.015 17.31 17.31 0 0 1-1.016.907Zm-5.297.625A5.822 5.822 0 0 0 3.484-9l.86.281a7.292 7.292 0 0 1-1.532 2.625Zm4.281 2.14c0 .668.129 1.243.39 1.72.27.48.618.89 1.048 1.234.425.343.91.632 1.453.859.55.219 1.11.402 1.672.547l-.579.875c-.43-.137-.859-.297-1.296-.485a7.848 7.848 0 0 1-1.25-.671 5.589 5.589 0 0 1-1.063-.891 3.621 3.621 0 0 1-.719-1.172c-.148.555-.367 1.024-.656 1.406a4.403 4.403 0 0 1-1.031.985 6.202 6.202 0 0 1-1.313.64c-.48.176-.976.329-1.484.454L1.078.109a9.592 9.592 0 0 0 1.89-.484C3.532-.594 4-.883 4.376-1.25c.383-.363.676-.813.875-1.344.195-.539.297-1.191.297-1.953v-.687h.906Zm1.063 2.125c.27-.28.52-.582.75-.906.226-.32.445-.66.656-1.015l.812.468c-.23.336-.468.664-.718.985-.25.312-.528.62-.829.922Zm-5.188.47c.258-.29.485-.61.672-.954.188-.351.344-.726.469-1.125l.828.266a7.62 7.62 0 0 1-.516 1.234 5.93 5.93 0 0 1-.75 1.14Zm0 0" id="f"/><path d="M5.875-.938a6.478 6.478 0 0 0 1.094-.171 3.37 3.37 0 0 0 .922-.375c.28-.164.53-.375.75-.625.226-.25.43-.555.609-.922.27-.531.39-1.07.36-1.625a3.22 3.22 0 0 0-.5-1.547 3.068 3.068 0 0 0-1.016-1 3.487 3.487 0 0 0-1.375-.469 19.001 19.001 0 0 1-.157 1.594c-.062.5-.156.984-.28 1.453-.044.21-.102.434-.173.672a6.488 6.488 0 0 1-.25.75 7.898 7.898 0 0 1-.328.781 4.122 4.122 0 0 1-.422.735c-.199.312-.418.546-.656.703a1.893 1.893 0 0 1-.734.296A1.64 1.64 0 0 1 3-.75a1.866 1.866 0 0 1-.625-.375 2.103 2.103 0 0 1-.484-.656 3.726 3.726 0 0 1-.266-.719 3.99 3.99 0 0 1-.094-.719 5.246 5.246 0 0 1 0-.61c.032-.757.196-1.429.5-2.015a4.676 4.676 0 0 1 1.14-1.453 4.786 4.786 0 0 1 1.517-.89A4.773 4.773 0 0 1 6.343-8.5c.75 0 1.43.164 2.047.484a3.747 3.747 0 0 1 1.5 1.344c.394.617.609 1.277.64 1.984a4.121 4.121 0 0 1-.437 2.079c-.43.843-.996 1.476-1.703 1.89-.7.406-1.528.633-2.485.672Zm-.484-3.921c.093-.426.171-.868.234-1.329.07-.457.117-.94.14-1.453a3.677 3.677 0 0 0-1.109.36 4.044 4.044 0 0 0-1.047.765 4.203 4.203 0 0 0-.812 1.172c-.211.45-.328.969-.36 1.563v.375c0 .18.016.367.047.562.04.2.102.399.188.594.082.2.195.371.344.516.218.21.445.265.687.171.25-.101.461-.296.64-.578.259-.406.473-.851.641-1.343.164-.489.301-.946.407-1.375Zm0 0" id="g"/><path d="M9.953-6.938c0 .532-.086 1-.25 1.407-.156.398-.39.773-.703 1.125a6.86 6.86 0 0 1-1.125 1c-.45.312-.953.652-1.516 1.015.094.106.192.215.297.329.102.117.219.25.344.406.133.148.285.312.453.5.164.187.36.406.578.656l-.703.578C6.316-1.098 5.457-2.032 4.75-2.719A84.804 84.804 0 0 0 3.156-4.25l.672-.594.594.532 1.266 1.234c.488-.3.93-.586 1.328-.86.406-.269.75-.55 1.03-.843.29-.29.517-.598.673-.922a2.54 2.54 0 0 0 .25-1.14H1.734v-.829h8.22Zm0 0" id="h"/><path d="M1.578-5.031h8.938v.922H1.578Zm0 0" id="i"/><path d="M3.063-.328a29.364 29.364 0 0 0 2.53-1.766c.696-.55 1.266-1.082 1.704-1.594.445-.519.77-1.03.969-1.53a4.45 4.45 0 0 0 .328-1.595H5.64a5.583 5.583 0 0 1-.422.688c-.157.21-.352.43-.578.656-.22.219-.477.45-.766.688-.293.242-.637.496-1.031.765l-.563-.718c.727-.52 1.29-.985 1.688-1.391.406-.414.695-.805.875-1.172.176-.363.281-.723.312-1.078.04-.352.063-.734.063-1.14h.968c0 .242-.007.449-.015.624-.012.18-.027.336-.047.47a5.637 5.637 0 0 1-.047.39 4.9 4.9 0 0 1-.078.344h3.563v.812c0 .648-.11 1.266-.329 1.86-.218.585-.57 1.167-1.046 1.75-.47.585-1.086 1.18-1.844 1.78-.75.606-1.668 1.247-2.75 1.923Zm0 0" id="j"/><path d="M10.406-.531a30.621 30.621 0 0 1-.61-.422 14.055 14.055 0 0 0-.437-.313 14.165 14.165 0 0 0-.343-.218c-.094-.063-.184-.118-.266-.172-.031.593-.2 1.023-.5 1.281-.305.262-.715.39-1.234.39-.188 0-.375-.015-.563-.046a2.563 2.563 0 0 1-.531-.172 1.916 1.916 0 0 1-.469-.281 1.978 1.978 0 0 1-.344-.407 1.28 1.28 0 0 1-.187-.484A1.208 1.208 0 0 1 5-1.953a1.34 1.34 0 0 1 .313-.5c.144-.133.3-.235.468-.297.176-.07.36-.125.547-.156a3.301 3.301 0 0 1 1.016-.016c.164.012.336.031.515.063v-3.594H4.688v-.813h3.171v-2.25h.891v2.25h1.766v.813H8.75v3.922a7.894 7.894 0 0 1 .89.469c.165.105.352.23.563.374.207.137.442.297.703.485Zm-7.578-2.39v.64a2.2 2.2 0 0 0 .078.484c.04.149.114.305.219.469.113.168.273.387.484.656l-.687.531a6.869 6.869 0 0 1-.594-.796 3.813 3.813 0 0 1-.281-.625 2.576 2.576 0 0 1-.094-.594v-6.438h.875ZM7.86-2a2.886 2.886 0 0 0-.437-.078 3.232 3.232 0 0 0-1.078.031.661.661 0 0 0-.469.313.438.438 0 0 0-.063.28.74.74 0 0 0 .11.25.843.843 0 0 0 .219.188c.093.055.18.094.265.125a1.9 1.9 0 0 0 .61.11c.187 0 .336-.02.453-.063a.549.549 0 0 0 .25-.203.618.618 0 0 0 .11-.328c.019-.133.03-.29.03-.469Zm0 0" id="k"/><path d="M2.5.781a11.728 11.728 0 0 0-.938-1.297 12.115 12.115 0 0 0-1.03-1.109l.78-.656c.333.293.665.636 1 1.031.344.387.688.82 1.032 1.297Zm0 0" id="l"/><path d="M7.328-7.672a3.4 3.4 0 0 1 .25-1.312c.176-.414.43-.801.766-1.157h.734c-.25.25-.453.532-.61.844a2.927 2.927 0 0 0-.296.969h.625v1.484H7.328Zm2.281 0a3.4 3.4 0 0 1 .25-1.312c.176-.414.43-.801.766-1.157h.719a3.36 3.36 0 0 0-.594.844 2.927 2.927 0 0 0-.297.969h.625v1.484H9.61Zm0 0" id="m"/><path d="M6.719-8.203h-2.75V.219H3.03V-8.22H.266v-.797h6.453Zm0 0" id="n"/><path d="M6.328-1.797C6.328-.453 5.5.22 3.844.22h-.625C1.582.219.766-.453.766-1.797v-5.125h.968v5c0 .305.036.543.11.719a.984.984 0 0 0 .328.39c.144.094.305.153.484.172.176.024.364.032.563.032h.64c.22 0 .414-.008.594-.032.188-.02.348-.07.484-.156a.83.83 0 0 0 .313-.36c.07-.163.11-.39.11-.671v-5.094h.968Zm0 0" id="o"/><path d="M2.438-5.781c.07-.094.144-.188.218-.282.082-.093.172-.187.266-.28.195-.157.43-.29.703-.407a2.71 2.71 0 0 1 1.016-.172h.203v.828H4.64c-.336 0-.61.04-.829.11a1.879 1.879 0 0 0-.593.328 1.997 1.997 0 0 0-.266.25 2.438 2.438 0 0 0-.25.297c-.187.21-.398.46-.625.75V.219H1.11v-7.14h.813l.11 1.702Zm0 0" id="p"/><path d="M5.75-4.89c0-.415-.11-.739-.328-.97-.211-.226-.516-.343-.922-.343-.23 0-.465.043-.703.125a3.683 3.683 0 0 0-.703.297 3.764 3.764 0 0 0-.61.437 2.28 2.28 0 0 0-.421.469V.219h-.954v-6.985h.797l.078 1.063a3.966 3.966 0 0 1 1.329-.953 3.61 3.61 0 0 1 1.453-.328c.601 0 1.078.187 1.421.562.352.367.532.875.532 1.531V.22H5.75Zm0 0" id="q"/><path d="M1.953-8.125H1v-1.328h.953Zm0 8.344H1v-7.14h.953Zm0 0" id="r"/><path d="M4.484-6.172H2.36v4.484c0 .336.051.602.157.797.113.188.351.282.718.282H4.47l.015.828H3.188c-.606 0-1.055-.153-1.344-.453-.293-.313-.438-.797-.438-1.454v-4.484H.344v-.719h1.078l.047-1.78h.89v1.78h2.125Zm0 0" id="s"/><path d="M5.063-9.016c.207 0 .445.028.718.079.27.054.52.156.75.312.227.148.422.36.578.64.164.282.25.657.25 1.126v4.937c0 .461-.086.828-.25 1.11-.156.28-.351.5-.578.656-.23.156-.48.254-.75.297a4.01 4.01 0 0 1-.718.078H3.327c-.21 0-.45-.028-.719-.078a1.924 1.924 0 0 1-.75-.297 1.867 1.867 0 0 1-.578-.656c-.156-.282-.234-.649-.234-1.11v-4.937c0-.47.078-.844.234-1.125.157-.282.348-.493.578-.641a2.16 2.16 0 0 1 .75-.313c.27-.05.508-.078.72-.078ZM6.39-6.859c0-.446-.102-.774-.297-.985-.2-.207-.532-.312-1-.312H3.328c-.469 0-.808.11-1.015.328-.2.21-.297.531-.297.969v4.937c0 .324.046.574.14.75.102.18.219.309.344.39.133.075.273.122.422.141.156.024.289.032.406.032h1.75c.102 0 .234-.008.39-.032a1.09 1.09 0 0 0 .423-.14.975.975 0 0 0 .343-.39c.102-.177.157-.427.157-.75Zm0 0" id="t"/><path d="M2.938.219.374-6.921h1.078L3.578-.61l2.094-6.313h1.062L4.204.218Zm0 0" id="u"/><path d="M3.953-6.922c.32 0 .629.031.922.094.3.062.566.172.797.328.226.148.41.344.547.594.133.25.203.562.203.937v.36c0 .375-.07.683-.203.921a1.48 1.48 0 0 1-.547.563c-.23.137-.496.234-.797.297a5.032 5.032 0 0 1-.922.078H1.72v.469c0 .148.004.289.015.422 0 .125.008.246.032.359.02.117.046.219.078.313a.882.882 0 0 0 .422.437c.195.094.488.14.875.14h2.812v.83H3.141A5.1 5.1 0 0 1 2.109.125a1.876 1.876 0 0 1-.75-.328A1.513 1.513 0 0 1 .906-.86c-.094-.282-.14-.63-.14-1.047V-4.97c0-.375.062-.687.187-.937a1.63 1.63 0 0 1 .531-.594c.227-.156.489-.266.782-.328.3-.063.617-.094.953-.094Zm-.75.828c-.23 0-.437.016-.625.047a.934.934 0 0 0-.453.172.85.85 0 0 0-.297.375c-.062.156-.094.371-.094.64v1.376h2.22c.237 0 .444-.008.624-.032a1.15 1.15 0 0 0 .469-.171.853.853 0 0 0 .281-.376c.07-.164.11-.382.11-.656 0-.289-.028-.523-.079-.703a.83.83 0 0 0-.25-.422.9.9 0 0 0-.453-.203 4.28 4.28 0 0 0-.687-.047Zm0 0" id="v"/><path d="M2.484-9.313c0 .481-.086.922-.25 1.329a3.584 3.584 0 0 1-.765 1.14H.766a3.413 3.413 0 0 0 .89-1.812h-.625v-1.485h1.453Zm2.282 0c0 .481-.09.922-.266 1.329a3.74 3.74 0 0 1-.75 1.14h-.719a3.17 3.17 0 0 0 .594-.828 3.52 3.52 0 0 0 .313-.984h-.641v-1.485h1.469Zm0 0" id="w"/><path d="M2.25-.328v-7.719h7.594v7.719Zm.938-6.86v6h5.718v-6Zm0 0" id="x"/><path d="M9.047-8.36h-.688v-1.828h.688Zm1.515.016h-.687v-1.828h.688Zm-8 7.016H8.22v-5.453H2.563v-.89h6.609v7.218h-6.61Zm0 0" id="y"/><path d="M7.89-7.578c-.148.23-.35.5-.609.812-.261.305-.523.637-.781 1-.25.368-.484.758-.703 1.172a4.18 4.18 0 0 0-.422 1.25c-.063.43-.055.809.031 1.14.082.337.227.618.438.845.218.218.488.386.812.5.32.117.696.171 1.125.171h.344c.156-.007.348-.023.578-.046v.828c-.437.031-.75.047-.937.047-.606 0-1.133-.086-1.579-.25a2.847 2.847 0 0 1-1.109-.704 2.637 2.637 0 0 1-.594-1.14c-.105-.445-.117-.957-.03-1.531a3.31 3.31 0 0 1 .28-1.032c.145-.32.32-.644.532-.968.207-.32.445-.649.718-.985.27-.343.563-.71.875-1.11H1.922v-.843h7.812v.844Zm.376 3.344h-.688v-1.844h.688Zm1.515.015h-.687v-1.843h.687Zm0 0" id="z"/><path d="M7.625-7.219v3.657c.008.355.008.667 0 .937 0 .273-.016.516-.047.734-.031.22-.09.43-.172.625a2.576 2.576 0 0 1-.328.579 6.04 6.04 0 0 1-.531.656c-.211.226-.465.5-.766.812L5.11.187c.332-.32.602-.585.813-.796.207-.22.367-.414.484-.594a2.02 2.02 0 0 0 .266-.5c.05-.164.086-.36.11-.578a1.247 1.247 0 0 1-.423.265c-.136.043-.32.059-.546.047a1.994 1.994 0 0 1-.735-.187 1.628 1.628 0 0 1-.547-.453 1.996 1.996 0 0 1-.328-.672 2.151 2.151 0 0 1-.062-.828c.039-.563.226-1.016.562-1.36a1.678 1.678 0 0 1 1.266-.5c.195 0 .343.016.437.047a1 1 0 0 1 .313.172v-1.469H1.53v-.812h5.19v-1.531h.906v1.53h2.813v.813ZM5.922-5.14a.792.792 0 0 0-.39.094.735.735 0 0 0-.282.266 1.223 1.223 0 0 0-.172.36 1.673 1.673 0 0 0-.062.796c.03.137.078.266.14.39a.836.836 0 0 0 .266.297.676.676 0 0 0 .422.126.801.801 0 0 0 .734-.329.891.891 0 0 0 .172-.343c.04-.133.066-.27.078-.407 0-.164-.016-.32-.047-.468a.926.926 0 0 0-.156-.391.747.747 0 0 0-.281-.281.806.806 0 0 0-.422-.11Zm0 0" id="A"/><path d="M3.5-.234v.78h-.906v-9.624h6.875V.547h-.875v-.781Zm0-8.032v3.11h5.094v-3.11Zm0 3.922v3.297h5.094v-3.297Zm0 0" id="C"/><path d="M2.484-5.266A16.951 16.951 0 0 1 1.375-3.5l-.484-.75a11.984 11.984 0 0 0 1.468-2.64c.383-.938.692-1.91.922-2.923l.875.235c-.117.406-.234.824-.36 1.25-.124.418-.273.82-.437 1.203V.844h-.875Zm6.954 4.86c0 .398-.075.66-.22.797-.148.144-.421.218-.827.218-.305 0-.606-.011-.907-.03a13.929 13.929 0 0 1-.906-.063l-.14-.97a8.324 8.324 0 0 0 1.734.188c.144 0 .25-.039.312-.125a.528.528 0 0 0 .094-.328V-6.39h-4.64v-.812H8.53v-2.531h.875v2.53h1.61v.813H9.437Zm-3-1.813a13.457 13.457 0 0 0-.704-1.375 9.594 9.594 0 0 0-.859-1.25l.688-.5c.343.407.644.824.906 1.25.27.43.52.867.75 1.313l-.75.562Zm0 0" id="D"/><path d="M3.078-2.75c0 .355.004.637.016.844.02.21.054.39.11.547.062.148.144.293.25.437.1.137.237.309.405.516L3.125.14c-.21-.27-.375-.5-.5-.688a2.746 2.746 0 0 1-.266-.594 3.205 3.205 0 0 1-.125-.671c-.023-.25-.03-.563-.03-.938v-6.078h.874Zm2.594-4.953h4.25v.906h-4.25Zm.547 4.312c-.032.387-.04.72-.016 1 .02.274.078.496.172.672.102.168.25.297.438.39.187.087.44.126.765.126h2.64v.875H7.517c-.461 0-.844-.067-1.157-.203a1.745 1.745 0 0 1-.718-.61c-.18-.257-.293-.578-.344-.953a5.13 5.13 0 0 1 0-1.297Zm0 0" id="E"/><path d="M7.672-7.656a12.415 12.415 0 0 0-2.219-1.75l.594-.688c.406.262.797.531 1.172.813.375.281.742.586 1.11.906l-.642.719Zm-4.438.515a8.962 8.962 0 0 0-.812-.906 9.714 9.714 0 0 0-.89-.812l.593-.688c.313.262.61.531.89.813.29.273.57.558.844.859l-.609.734Zm.407 6.875h3.234v-3.03H4.312v-.798h2.563v-2.531H3.969v-.781h6.781v.781h-3v2.531h2.766v.797H7.75v3.031h3.313v.782H3.64Zm-.766-4.078a19.86 19.86 0 0 0-.844-.875 9.863 9.863 0 0 0-.906-.797l.563-.703c.343.25.66.512.953.782.289.273.578.562.859.875l-.594.718ZM1.187 0a17.4 17.4 0 0 0 1.188-1.844 20.2 20.2 0 0 0 .984-2l.625.656c-.28.688-.601 1.36-.953 2.016A19.185 19.185 0 0 1 1.844.781Zm0 0" id="F"/><path d="M3.406-.078v.797h-.86V-9.11h6.985V.719h-.875v-.797Zm0-8.266v1.953h5.25v-1.953Zm0 2.703v1.922h5.25V-5.64Zm0 2.688v2.11h5.25v-2.11Zm0 0" id="G"/><path d="M10.188-2.469c-.72.969-1.454 1.68-2.204 2.125-.742.446-1.48.672-2.218.672-.336 0-.653-.055-.954-.156a2.207 2.207 0 0 1-.796-.469 2.262 2.262 0 0 1-.532-.797 3.086 3.086 0 0 1-.187-1.125v-6.953h.953v6.953c0 .5.113.906.344 1.219.238.305.617.453 1.14.453.239 0 .5-.035.782-.11.28-.081.582-.218.906-.405.32-.188.66-.442 1.016-.766A8.9 8.9 0 0 0 9.53-3.062Zm0 0" id="H"/><path d="M7.89-7.578c-.148.23-.35.5-.609.812-.261.305-.523.637-.781 1-.25.368-.484.758-.703 1.172a4.18 4.18 0 0 0-.422 1.25c-.063.43-.055.809.031 1.14.082.337.227.618.438.845.218.218.488.386.812.5.32.117.696.171 1.125.171.07 0 .192-.003.36-.015.164-.008.351-.02.562-.031v.828c-.437.031-.75.047-.937.047-.606 0-1.133-.086-1.579-.25a2.789 2.789 0 0 1-1.109-.72 2.637 2.637 0 0 1-.594-1.14c-.105-.445-.117-.957-.03-1.531.038-.363.132-.703.28-1.016.145-.32.32-.644.532-.968.207-.32.445-.657.718-1 .27-.344.563-.711.875-1.11l-4.937.016v-.844h7.812v.844Zm0 0" id="I"/><path d="M6.39-8.813c0 .618-.038 1.274-.109 1.97a15.724 15.724 0 0 1-.375 2.218 22.86 22.86 0 0 1 2.469.297v-.484c.008-.239.016-.489.016-.75 0-.301.004-.625.015-.97h.938c-.012.376-.016.727-.016 1.048-.012.273-.015.539-.015.796 0 .262-.008.446-.016.547.207.032.394.07.562.11.164.043.313.078.438.11.144.042.281.077.406.108l-.156.782-1.344-.313a7.646 7.646 0 0 1-.25.969c-.094.305-.215.61-.36.922-.148.305-.323.61-.53.922-.2.312-.434.64-.704.984l-.718-.547c.25-.312.468-.61.656-.89.187-.29.344-.57.469-.844.132-.281.242-.555.328-.828.082-.281.148-.57.203-.875a20.707 20.707 0 0 0-2.656-.313c-.262.793-.543 1.414-.844 1.86-.293.449-.617.75-.969.906a1.531 1.531 0 0 1-.844.172 1.276 1.276 0 0 1-.765-.313 1.737 1.737 0 0 1-.453-.672c-.094-.257-.106-.566-.032-.921.051-.29.157-.54.313-.75.156-.208.332-.38.531-.516.195-.145.41-.254.64-.328a4.91 4.91 0 0 1 .688-.157 5.43 5.43 0 0 1 .61-.078c.187-.007.332-.015.437-.015a19.478 19.478 0 0 0 .531-3.313H3v-.843Zm-3 6.97c.227-.083.446-.29.657-.626.219-.332.43-.785.64-1.36a9.792 9.792 0 0 0-.562.063 2.594 2.594 0 0 0-.656.188c-.211.086-.399.21-.563.375-.168.156-.265.371-.297.64-.043.262.016.47.172.626.156.148.36.18.61.093Zm0 0" id="J"/><path d="M9.281-.234a16.999 16.999 0 0 0-1.39-.922 6.997 6.997 0 0 0-.547-.297c-.168-.082-.34-.16-.516-.234-.012.667-.164 1.164-.453 1.484-.281.32-.746.484-1.39.484-.337 0-.657-.054-.97-.156a2.25 2.25 0 0 1-.78-.406 1.601 1.601 0 0 1-.454-.672c-.086-.258-.074-.555.031-.89.102-.282.297-.509.579-.688.289-.176.656-.29 1.093-.344.22-.031.446-.047.688-.047.238 0 .5.031.781.094v-2.125H2.97v-.813h2.984v-1.828h-3.14v-.828h3.14v-1.453h.875v1.453h2.828v.828H6.828v1.828h2.64v.813h-2.64v2.375c.613.21 1.149.46 1.61.75.468.281.925.586 1.374.906ZM5.953-1.891a4.605 4.605 0 0 0-.734-.093c-.25-.008-.453 0-.61.03a1.755 1.755 0 0 0-.296.063c-.094.032-.184.07-.266.11a.906.906 0 0 0-.234.172.357.357 0 0 0-.11.218.397.397 0 0 0 .063.344c.07.106.171.195.296.266.125.062.266.117.422.156.164.031.332.047.5.047.22 0 .391-.024.516-.078a.567.567 0 0 0 .297-.235.91.91 0 0 0 .125-.421c.02-.165.031-.36.031-.579Zm0 0" id="K"/><path d="M8.625-.344a22.33 22.33 0 0 0-.688-.437 14.23 14.23 0 0 0-.562-.36 5.544 5.544 0 0 0-.484-.265 6.752 6.752 0 0 0-.454-.219c0 .105-.007.23-.015.375 0 .137-.024.273-.063.406-.03.137-.09.266-.171.39a1.02 1.02 0 0 1-.344.313c-.324.196-.668.29-1.032.282-.367 0-.714-.075-1.046-.22a1.74 1.74 0 0 1-.438-.28 1.978 1.978 0 0 1-.344-.407 1.41 1.41 0 0 1-.171-.468 1.263 1.263 0 0 1 .046-.532c.063-.164.149-.304.266-.421.113-.126.238-.227.375-.313a1.4 1.4 0 0 1 .422-.203c.144-.04.289-.07.437-.094.446-.039.86-.015 1.235.078v-4.906h.86v1.5h2.343v.797H6.453V-2.5c.207.086.41.18.61.281.207.094.414.203.625.328.207.118.421.246.64.391.227.148.477.313.75.5ZM5.609-1.906A2.228 2.228 0 0 0 5-2a6.383 6.383 0 0 0-.547 0c-.156.023-.312.07-.469.14a.57.57 0 0 0-.312.329.395.395 0 0 0-.016.25.66.66 0 0 0 .094.203c.05.062.11.121.172.172a.758.758 0 0 0 .172.094c.187.093.398.148.64.156.25.011.461-.04.641-.156a.435.435 0 0 0 .156-.22 1.02 1.02 0 0 0 .078-.312 2.299 2.299 0 0 0 0-.328v-.234Zm0 0" id="L"/><path d="M7.89-8.156a14.3 14.3 0 0 1-1.234-.047 5.566 5.566 0 0 1-.953-.188 4.723 4.723 0 0 1-.844-.359 16.89 16.89 0 0 1-.921-.531l.578-.735c.312.2.586.36.828.485.238.117.484.21.734.281.25.063.516.11.797.14.281.024.617.032 1.016.032ZM4.923-.078c.3-.258.586-.516.86-.766.269-.258.534-.523.796-.797.195-.195.395-.406.594-.625.195-.218.375-.453.531-.703.156-.25.274-.515.36-.797.093-.28.124-.586.093-.921-.031-.438-.18-.77-.437-1-.262-.239-.633-.36-1.11-.36H2.781v-.86H6.61c.676 0 1.223.165 1.641.485.414.313.68.758.797 1.328.031.149.05.309.062.485.008.18.008.343 0 .5-.043.398-.132.75-.265 1.062-.125.305-.324.625-.594.969-.273.336-.621.71-1.047 1.125-.43.406-.96.902-1.594 1.484Zm0 0" id="M"/><path d="M5.594-6.422c-.012.2-.024.399-.032.594 0 .187-.011.383-.03.578H9.5a30.899 30.899 0 0 1-.11 1.61 19.658 19.658 0 0 0-.062 1.609v.078c-.012.012-.015.031-.015.062a17.55 17.55 0 0 1-.094.813 6.022 6.022 0 0 1-.14.781c-.044.149-.102.29-.173.422a.808.808 0 0 1-.36.344.904.904 0 0 1-.405.125 8.91 8.91 0 0 1-1.25-.015A7.451 7.451 0 0 1 6.109.5L5.906-.516c.29.063.578.118.86.157.289.043.578.062.859.062.195 0 .344-.047.438-.14a.951.951 0 0 0 .203-.438c.07-.227.125-.492.156-.797.039-.312.07-.629.094-.953.02-.332.035-.656.046-.969.008-.32.02-.601.032-.844h-3.14c0 .012-.009.028-.016.047v.079a10.832 10.832 0 0 1-.36 1.578c-.156.492-.367.96-.625 1.406A6.666 6.666 0 0 1 3.516-.11 7.547 7.547 0 0 1 2.219.937l-.594-.75a4.575 4.575 0 0 0 1.14-.828 5.91 5.91 0 0 0 .829-1.078c.226-.383.414-.797.562-1.234.145-.438.258-.883.344-1.344.082-.469.14-.937.172-1.406.039-.469.066-.93.078-1.39H1.36v-.798h4.202v-1.89h.907v1.89h4.265v.797H5.641Zm0 0" id="Q"/><path d="M2.313-5.078c-.137.25-.29.508-.454.766-.168.261-.351.53-.546.812l-.454-.75a13.708 13.708 0 0 0 1.438-2.703c.375-.945.664-1.93.875-2.953l.812.187c-.105.469-.226.938-.359 1.406-.137.47-.293.93-.469 1.376v7.78h-.844Zm1.656-2.375h2.765v-2.203h.875v2.203h3.047v.797H3.97ZM7.484-.422v-.016c.008 0 .016-.003.016-.015v-.031l.031-.094c.063-.258.13-.516.203-.766.07-.258.141-.515.204-.765.156-.657.289-1.313.406-1.97.125-.655.234-1.32.328-2l.906.25c-.156.907-.34 1.813-.547 2.72a34.525 34.525 0 0 1-.703 2.687h2.719V.36H3.609v-.78Zm-1.812-.625a37.13 37.13 0 0 0-.422-2.312 33.25 33.25 0 0 0-.594-2.282l.86-.25c.25.75.457 1.508.625 2.266.164.75.32 1.512.468 2.281l-.906.297Zm0 0" id="R"/><path d="M8.11-7.578c.156-.395.3-.797.437-1.203.133-.406.25-.82.344-1.25l.828.297a44.95 44.95 0 0 1-.39 1.078c-.15.375-.298.734-.454 1.078h2.281v.734H4.234v-.734Zm-1.641-.094a8.008 8.008 0 0 0-.313-.969 6.89 6.89 0 0 0-.453-.937l.703-.297c.176.313.328.625.453.938.133.304.254.609.36.921l-.719.344ZM2.39.61h-.72v-4.687c-.21.398-.46.808-.75 1.234l-.359-.812a9.89 9.89 0 0 0 1.11-2.25c.289-.813.508-1.625.656-2.438H1v-.765h3.344v.765H3.078l-.015.11c-.094.449-.204.898-.329 1.343-.125.45-.261.891-.406 1.329h1.797V-.39H2.391ZM4.859-.5c.133-.25.254-.492.36-.734.113-.25.226-.5.343-.75l.125-.282a8.478 8.478 0 0 1-.203-.328 6.138 6.138 0 0 1-.187-.328 65.848 65.848 0 0 0-.469-.765 8.349 8.349 0 0 0-.5-.735l.469-.672.156.235h-.016c.051.074.098.148.141.218.05.075.098.141.14.204.321-.72.614-1.493.876-2.329l.734.313c-.168.46-.355.918-.562 1.375-.211.46-.43.906-.657 1.344.07.117.141.234.204.359.07.117.14.23.203.344.175-.406.343-.817.5-1.235.164-.425.332-.847.5-1.265l.687.343a51.074 51.074 0 0 1-.937 2.282c-.325.73-.68 1.48-1.063 2.25l-.047.078c.188-.02.375-.04.563-.063l.562-.093h-.015a21.846 21.846 0 0 1-.172-.594 7.173 7.173 0 0 0-.203-.594l.656-.203c.176.43.328.86.453 1.297.125.43.234.867.328 1.328l-.734.266a16.72 16.72 0 0 0-.188-.922C6.52-.04 6.125.05 5.72.125c-.407.082-.82.156-1.235.219L4.25-.453 4.89-.5Zm3.079-.172a.573.573 0 0 1 .171-.031h.157c.132-.25.257-.5.375-.75.113-.258.226-.52.343-.781a20.23 20.23 0 0 0-.718-1.063 11.639 11.639 0 0 0-.766-1l.422-.656.5.672c.187-.407.351-.813.5-1.219.156-.414.3-.836.437-1.266l.704.329a22.651 22.651 0 0 1-1.188 2.781c-.012-.008-.008.008.016.047.02.03.039.058.062.078.063.094.117.187.172.281.063.086.125.18.188.281.007-.02.015-.035.015-.047a.12.12 0 0 1 .016-.046v-.016c.187-.414.351-.82.5-1.219.156-.394.3-.8.437-1.219l.656.391c-.117.336-.25.688-.406 1.063a44.15 44.15 0 0 1-.469 1.14c-.167.375-.34.75-.515 1.125-.168.367-.328.703-.485 1.016.126 0 .243-.004.36-.016a6 6 0 0 1 .375-.047l.36-.047a8.726 8.726 0 0 0-.47-1.171l.672-.266c.207.43.391.86.547 1.297.164.43.317.86.453 1.297l-.765.39a30.421 30.421 0 0 1-.125-.5 10.21 10.21 0 0 1-.11-.437c-.398.105-.789.195-1.171.265C8.8.047 8.405.102 8 .156l-.266-.828ZM2.39-4.844v3.735h1.015v-3.735Zm0 0" id="S"/><path d="M4.016-4.719h1.968v.735H4.016v3.156c.375-.094.738-.195 1.093-.313.352-.113.711-.222 1.079-.328l.078.766c-.805.305-1.606.57-2.407.797a49.38 49.38 0 0 1-2.453.625l-.312-.875.437-.094c.27-.063.535-.117.797-.172.258-.05.52-.11.781-.172a.67.67 0 0 0 .094-.015h-.015v-3.375h-2v-.735h2v-1.297H2.062a4.032 4.032 0 0 1-.343.391c-.117.125-.235.258-.36.39l-.437-.75a10.23 10.23 0 0 0 1.437-1.874c.407-.676.739-1.407 1-2.188l.813.188-.219.562h-.015c.425.324.828.664 1.203 1.016.382.355.757.73 1.125 1.125l-.516.75a23.142 23.142 0 0 0-1.031-1.14 15.705 15.705 0 0 0-1.063-1.048 21.16 21.16 0 0 1-.484.938c-.168.312-.36.62-.578.922h2.703v.718H4.016Zm7.171-1.172v.813h-2.14V.844h-.828v-5.922H6.047v-.813h2.172v-3.89h.828v3.89Zm-6.75 4.344c.133-.344.25-.68.344-1.016.102-.343.196-.69.282-1.046l.812.25a23.96 23.96 0 0 1-.344 1.015c-.117.336-.258.68-.422 1.031l-.656-.234Zm-2.484.64a20.757 20.757 0 0 0-.25-1.109 9.403 9.403 0 0 0-.36-1.093l.798-.282c.132.356.25.715.343 1.079.102.355.192.726.266 1.109l-.766.297Zm0 0" id="T"/><path d="M9.344-.016c-.274.04-.543.079-.813.11-.273.031-.539.05-.797.062-.25.02-.492.032-.718.032H5.859c-.218 0-.445-.016-.671-.047A6.643 6.643 0 0 1 4.468 0a2.976 2.976 0 0 1-.702-.234 2.643 2.643 0 0 1-.579-.422 2.032 2.032 0 0 1-.437-.656 2.247 2.247 0 0 1-.156-1.016 2.04 2.04 0 0 1 .344-.89 4.13 4.13 0 0 1 .796-.829c.344-.27.727-.547 1.157-.828v-4.734h.921v4.171c.196-.125.391-.25.579-.375.195-.125.398-.25.609-.375.207-.132.43-.273.672-.421.25-.145.52-.305.812-.485l.485.75-2.25 1.313a45.18 45.18 0 0 0-1.485.937 6.413 6.413 0 0 0-1.062.828c-.274.262-.461.524-.563.782a.995.995 0 0 0 .016.796c.082.243.223.43.422.563.207.125.43.227.672.297.25.062.5.105.75.125.258.023.5.031.718.031.508.024 1.02.016 1.532-.015.508-.04 1.05-.098 1.625-.172Zm0 0" id="U"/><path d="M6.672-5c.531-.29.953-.535 1.266-.734.32-.196.57-.375.75-.532.175-.164.289-.32.343-.468a1.45 1.45 0 0 0 .094-.547v-.297H2.062v-.89h8.032v1.187c0 .355-.059.664-.172.922-.117.261-.297.5-.547.718a6.013 6.013 0 0 1-.922.672c-.367.23-.805.492-1.312.782Zm-3.5 4.703c.312-.363.578-.68.797-.953.226-.281.422-.547.578-.797.156-.258.281-.531.375-.812.094-.282.164-.598.219-.954.05-.363.082-.789.093-1.28.02-.489.032-1.071.032-1.75h.968c0 .741-.015 1.386-.046 1.937a12.636 12.636 0 0 1-.157 1.422 6.725 6.725 0 0 1-.281 1.078 5.529 5.529 0 0 1-.438.89 6.84 6.84 0 0 1-.609.86c-.23.281-.5.601-.812.953Zm0 0" id="V"/><path d="M6.86-.89c.363-.008.68-.051.952-.126.27-.082.524-.222.766-.421.238-.196.473-.461.703-.797.227-.344.485-.782.766-1.313l.797.485c-.313.593-.61 1.09-.89 1.484-.282.387-.579.7-.892.937a2.8 2.8 0 0 1-1 .485c-.367.093-.792.14-1.28.14h-.876v-8.78h.953ZM4.28-6.235c0 .68-.027 1.273-.078 1.78-.043.513-.14.997-.297 1.454-.148.46-.36.93-.64 1.406A20.134 20.134 0 0 1 2.156.031l-.781-.547c.426-.582.77-1.093 1.031-1.53.258-.438.457-.86.594-1.267.133-.414.223-.847.266-1.296.039-.457.062-1 .062-1.625v-1.391h.953Zm0 0" id="W"/><path d="M9.656-7.75c0 .898-.11 1.684-.328 2.36a7.07 7.07 0 0 1-.937 1.921 12.031 12.031 0 0 1-1.563 1.781A60.84 60.84 0 0 1 4.641.25L4-.469a61.897 61.897 0 0 0 2.11-1.89c.581-.563 1.062-1.102 1.437-1.625a6.05 6.05 0 0 0 .828-1.625c.176-.563.273-1.196.297-1.907H2.516v-.953h7.14Zm0 0" id="X"/><path d="M6.563-4.094c.425-.238.765-.437 1.015-.593.258-.157.461-.301.61-.438a.96.96 0 0 0 .28-.406c.052-.133.079-.297.079-.485v-.03H2.64v-.813h6.765v.843c0 .325-.054.602-.156.829-.094.218-.242.43-.438.625A4.479 4.479 0 0 1 8.046-4c-.305.188-.656.402-1.063.64ZM3.608 0c.25-.29.461-.547.641-.766.176-.218.328-.43.453-.64.125-.219.223-.438.297-.657.082-.218.145-.472.188-.765.05-.29.082-.629.093-1.016.008-.383.016-.844.016-1.375h.875c0 .594-.016 1.11-.047 1.547a11.81 11.81 0 0 1-.11 1.156 4.383 4.383 0 0 1-.234.875c-.093.25-.215.493-.36.72a6.649 6.649 0 0 1-.5.687c-.187.23-.413.488-.671.78Zm0 0" id="Y"/><path d="M8.281-6.484h-.703V-8.36h.703Zm1.5.015h-.703v-1.875h.703Zm-7.61 3.875-.796-.578 3.422-4.594 6.062 5.75-.718.766-5.25-5.203Zm0 0" id="Z"/><path d="M3.14-6.953h.907v2.719H3.14Zm2.157 0h.922v2.719h-.922ZM3.875-.563a22.754 22.754 0 0 0 2.047-1.53c.531-.446.941-.891 1.234-1.329.301-.445.504-.91.61-1.39a8.086 8.086 0 0 0 .156-1.672v-.407h.922v.407c0 .73-.07 1.375-.203 1.937a4.706 4.706 0 0 1-.688 1.578c-.324.5-.773 1-1.344 1.5A23.769 23.769 0 0 1 4.406.171Zm0 0" id="aa"/><path d="M5.016-5.969c.78.375 1.53.778 2.25 1.203a56.41 56.41 0 0 1 2.28 1.391l-.53.781c-.368-.258-.72-.5-1.063-.719a28.48 28.48 0 0 0-1.016-.64 36.212 36.212 0 0 0-.968-.563l-.953-.53v5.42h-.922v-9.89h.922Zm0 0" id="ab"/><path d="M1.89-.39c.25-.477.462-.9.641-1.266.188-.364.344-.692.469-.985a8.81 8.81 0 0 0 .328-.812c.082-.25.149-.5.203-.75.051-.258.086-.535.11-.828.03-.29.05-.625.062-1h-1.86v-.828H3.72v-2.688h.906v2.688h.828c.195 0 .406.015.625.046.227.032.453.102.672.204.219.105.414.257.594.453.187.187.332.449.437.781.082.242.14.516.172.828.031.305.047.711.047 1.219 0 .25-.008.476-.016.672a9.625 9.625 0 0 1-.046.531 2.875 2.875 0 0 1-.063.438 3.003 3.003 0 0 1-.094.39c-.105.344-.25.617-.437.813a1.61 1.61 0 0 1-.64.437 2.83 2.83 0 0 1-.798.172 8.072 8.072 0 0 1-.89.047v-.86c.375 0 .671-.019.89-.062.227-.04.407-.098.532-.172a.8.8 0 0 0 .296-.297c.063-.113.114-.242.157-.39.062-.157.101-.352.125-.594.03-.25.046-.625.046-1.125 0-.258-.007-.485-.015-.672-.012-.188-.024-.348-.031-.484a3.064 3.064 0 0 0-.047-.344 2.636 2.636 0 0 0-.078-.266 1.814 1.814 0 0 0-.172-.375.953.953 0 0 0-.266-.297 1.119 1.119 0 0 0-.406-.187 1.953 1.953 0 0 0-.594-.078h-.828a17.03 17.03 0 0 1-.063 1.125 8.011 8.011 0 0 1-.14.922 7.43 7.43 0 0 1-.234.828 9.27 9.27 0 0 1-.36.875 18.15 18.15 0 0 1-.484 1.015 77.94 77.94 0 0 0-.64 1.282Zm7.188-7.266h-.703v-1.828h.703Zm1.453.015h-.687v-1.828h.687ZM9.97-2.469c0-.695-.024-1.254-.063-1.672a3.85 3.85 0 0 0-.203-1.046 1.917 1.917 0 0 0-.39-.672A7.381 7.381 0 0 0 8.64-6.5l.64-.578c.352.273.633.531.844.781.207.25.363.547.469.89.113.337.187.735.219 1.204.03.469.046 1.047.046 1.734Zm0 0" id="ac"/><path d="M6.563-.438c.3-.007.601-.046.906-.109.3-.07.597-.21.89-.422.29-.219.524-.5.704-.844.175-.343.265-.695.265-1.062a2.38 2.38 0 0 0-.344-1.219A2.42 2.42 0 0 0 8.094-5c-.242 1.043-.637 1.95-1.188 2.719-.554.773-1.218 1.36-2 1.765a2.45 2.45 0 0 1-.953.313 1.732 1.732 0 0 1-.89-.14 1.957 1.957 0 0 1-.547-.376c-.188-.176-.336-.445-.438-.812A2.364 2.364 0 0 1 2-2.36c.02-.282.07-.551.156-.813.094-.258.207-.508.344-.75.145-.238.3-.457.469-.656a15.308 15.308 0 0 1 .922-.734c.113-.083.222-.149.328-.204.113-.05.238-.101.375-.156v-1.656H2.875v-.797h1.734v-1.39H5.5v1.39h2.875v.797H5.5v1.406c.195-.039.39-.07.578-.094a5.224 5.224 0 0 1 .938-.015 5 5 0 0 1 .359.047c.008-.082.016-.16.016-.235.007-.07.015-.133.015-.187v-.188h.907a5.176 5.176 0 0 0-.032.36c-.011.148-.027.308-.047.484a3.32 3.32 0 0 1 1.454 1.156c.351.5.53 1.074.53 1.719 0 .48-.105.938-.312 1.375-.21.438-.508.805-.89 1.094-.606.5-1.418.75-2.438.75h-.016ZM5.5-1.905A6.674 6.674 0 0 0 6.578-3.39c.3-.57.524-1.187.672-1.843a5.587 5.587 0 0 0-.828-.032c-.305.012-.61.063-.922.157ZM4.61-4.78c-.137.093-.266.183-.391.265a7.34 7.34 0 0 0-.344.266 2.625 2.625 0 0 0-.438.5 3.512 3.512 0 0 0-.546 1.328c-.032.23-.024.45.03.656.095.344.259.57.5.672.165.074.352.102.563.078.22-.03.426-.101.625-.218Zm0 0" id="ad"/><path d="M4-6.125c.145-.438.316-.848.516-1.234a5.07 5.07 0 0 1 .687-1.016c.258-.29.535-.508.828-.656.301-.145.625-.192.969-.14.688.093 1.203.421 1.547.983.351.555.531 1.372.531 2.454 0 .625-.043 1.261-.125 1.906a5.27 5.27 0 0 1-.578 1.812 5.892 5.892 0 0 1-.406.672 7.778 7.778 0 0 1-.438.61l-.484.578c-.168.195-.352.398-.547.61l-.688-.61a45.3 45.3 0 0 1 .5-.547c.157-.164.301-.332.438-.5.133-.176.266-.36.39-.547.126-.195.25-.406.376-.625.144-.27.257-.54.343-.813a4.04 4.04 0 0 0 .188-.843c.039-.29.066-.578.078-.86.02-.289.031-.57.031-.843 0-.801-.117-1.43-.344-1.891-.218-.469-.53-.723-.937-.766a.915.915 0 0 0-.547.079 1.84 1.84 0 0 0-.5.39 3.743 3.743 0 0 0-.453.61c-.148.23-.281.476-.406.734-.262.5-.48 1.016-.657 1.547-.18.523-.296 1.12-.359 1.797h-.812v-5.97H4Zm0 0" id="ae"/><path d="M1.125-1.781c.477-.688.898-1.27 1.266-1.75.375-.489.726-.926 1.062-1.313v-1.593H1.391v-.86h2.062V-9.5h.86v3.766c.613-.582 1.19-1.032 1.734-1.344.539-.32 1.055-.52 1.547-.594h.375c.144 0 .289.024.437.063.156.03.313.086.469.156.156.074.29.172.406.297.301.273.52.62.656 1.047.133.418.208.87.22 1.359a7.49 7.49 0 0 1-.095 1.5c-.085.5-.187.965-.312 1.39.156.118.313.235.469.36.156.117.289.219.406.313.145.117.285.226.422.328l-.563.656a12.614 12.614 0 0 0-.593-.484 17.6 17.6 0 0 0-.485-.36c-.23.324-.523.574-.875.75a2.48 2.48 0 0 1-1.14.266c-.375 0-.7-.055-.97-.172-.366-.164-.624-.399-.78-.703a1.154 1.154 0 0 1-.063-.953.99.99 0 0 1 .297-.454c.133-.124.281-.218.438-.28a2.39 2.39 0 0 1 .938-.203c.53 0 1.1.163 1.718.483.101-.382.18-.785.234-1.203a7.2 7.2 0 0 0 .078-1.218 3.994 3.994 0 0 0-.172-1.079c-.093-.32-.234-.578-.421-.765-.18-.156-.356-.238-.532-.25-.18-.008-.34-.016-.484-.016a3.101 3.101 0 0 0-.578.157 4.247 4.247 0 0 0-.75.359 7.964 7.964 0 0 0-.922.687 10.43 10.43 0 0 0-1.11 1.079v4.89h-.859v-3.922c-.125.168-.246.328-.36.485-.116.156-.234.324-.359.5-.117.18-.246.375-.39.593-.137.211-.297.454-.485.735Zm6.234.922c.258 0 .504-.055.735-.172.238-.114.426-.274.562-.485a4.029 4.029 0 0 0-.672-.343A2.01 2.01 0 0 0 7.25-2c-.094 0-.215.016-.36.047a.884.884 0 0 0-.374.156.49.49 0 0 0-.141.25.425.425 0 0 0 .031.234.653.653 0 0 0 .14.204.667.667 0 0 0 .22.125c.175.086.375.125.593.125Zm0 0" id="af"/><path d="M6.078-10.313a4.7 4.7 0 0 1 2.11.485c.656.324 1.222.75 1.703 1.281a5.89 5.89 0 0 1 1.546 3.969c0 .742-.14 1.453-.421 2.14A5.908 5.908 0 0 1 9.875-.625 5.404 5.404 0 0 1 8.172.641a4.821 4.821 0 0 1-2.14.484A4.809 4.809 0 0 1 3.89.641 5.36 5.36 0 0 1 2.187-.625a5.921 5.921 0 0 1-1.124-1.828A5.837 5.837 0 0 1 .655-4.61c0-.895.176-1.72.531-2.47a6.192 6.192 0 0 1 1.563-2c.945-.82 2.055-1.233 3.328-1.233Zm-.062.547c-.387 0-.758.055-1.11.157-.355.105-.703.25-1.047.437a4.602 4.602 0 0 0-1.125.828c-.324.336-.601.7-.828 1.094-.218.398-.39.824-.515 1.281a5.278 5.278 0 0 0-.188 1.39c0 .669.125 1.313.375 1.938.25.618.586 1.164 1.016 1.641A5.08 5.08 0 0 0 4.125.125c.594.29 1.238.438 1.938.438.757 0 1.484-.196 2.171-.579.407-.218.77-.492 1.094-.828.32-.344.598-.71.828-1.11a5.065 5.065 0 0 0 .735-2.64c0-1.625-.61-2.96-1.829-4.015a5.238 5.238 0 0 0-1.421-.86 4.434 4.434 0 0 0-1.625-.297ZM5.703-7.25c-.21.105-.418.203-.625.297-.21.086-.43.152-.656.203v-.89a4.36 4.36 0 0 0 1.516-.813h.78v7.719H5.704Zm0 0" id="ag"/><path d="M5.375-9.61h1.344l-.203 7.282h-.938Zm0 8.391h1.344V.188H5.375Zm0 0" id="ah"/><path d="M10.328-5.766v.782H6.453v1.64h4.484v.781H6.454V.845h-.906v-3.406h-4.39v-.782h4.39v-1.64H1.766v-.782h3.78v-4.218h.907v4.218Zm-2.703-.796c.27-.446.52-.899.75-1.36.227-.457.438-.937.625-1.437l.828.421A18.11 18.11 0 0 1 8.36-6.155Zm-4.047.328c-.187-.438-.39-.864-.61-1.282a7.862 7.862 0 0 0-.75-1.218l.75-.485c.282.418.536.836.766 1.25.239.418.454.852.641 1.297l-.766.438Zm0 0" id="ai"/><path d="M10.563-4.36a10.823 10.823 0 0 1-2.297-2.25 17.74 17.74 0 0 1-1.704-2.718l.797-.328c.457.898 1 1.73 1.625 2.5a9.659 9.659 0 0 0 2.204 1.968l-.61.829Zm-4.797-.234a9.812 9.812 0 0 1-.344 1.813A5.997 5.997 0 0 1 4.75-1.25c-.293.46-.664.871-1.11 1.234a6.5 6.5 0 0 1-1.624.907L1.469.094a4.68 4.68 0 0 0 1.406-.719 4.754 4.754 0 0 0 1-1.078c.281-.406.5-.848.656-1.328a8.078 8.078 0 0 0 .328-1.563H2.781v-.61c-.187.212-.39.415-.61.61-.21.188-.421.367-.64.532l-.625-.735a8.881 8.881 0 0 0 2.047-2.11c.55-.812 1-1.695 1.344-2.655l.86.359a15.757 15.757 0 0 1-.954 2A12.801 12.801 0 0 1 2.97-5.375h6.234c-.023.668-.043 1.328-.062 1.984a16.157 16.157 0 0 1-.157 1.97l-.015.171c-.031.18-.059.367-.078.563a1.866 1.866 0 0 1-.094.5c-.063.187-.14.332-.235.437a.846.846 0 0 1-.312.234c-.117.051-.25.082-.406.094a3.63 3.63 0 0 1-.485.031c-.293 0-.586-.011-.875-.03A30.766 30.766 0 0 1 5.641.5l-.172-1c.289.074.578.137.86.188.288.042.581.062.874.062.207 0 .363-.04.469-.125.113-.094.207-.242.281-.453.031-.133.05-.29.063-.469.02-.176.039-.344.062-.5l.031-.234.094-1.281c.04-.415.07-.844.094-1.282Zm0 0" id="aj"/><path d="M1.469-2a27.165 27.165 0 0 0 2.203-5.234h-1.5v-.844h1.781c.094-.332.176-.64.25-.922.07-.281.133-.5.188-.656l.875.203a5.906 5.906 0 0 0-.157.547c-.062.25-.136.527-.218.828H6.5v.844H4.625a31.697 31.697 0 0 1-1.063 2.953 31.197 31.197 0 0 1-1.28 2.734ZM9.39-5.438c-.313 0-.57.141-.766.422-.2.274-.29.7-.266 1.282v1.515a8.38 8.38 0 0 1 1.063.485c.344.18.75.406 1.219.687l-.438.734c-.21-.132-.398-.25-.562-.343-.168-.094-.325-.18-.47-.266a4.626 4.626 0 0 0-.405-.219 40.767 40.767 0 0 1-.407-.187C8.367-.723 8.22-.281 7.906 0c-.304.27-.734.406-1.297.406-.28 0-.57-.047-.859-.14a2.185 2.185 0 0 1-.766-.391 1.723 1.723 0 0 1-.484-.64c-.094-.25-.09-.532.016-.844.101-.258.289-.477.562-.657.27-.175.617-.285 1.047-.328.133-.02.254-.031.36-.031.1-.008.202-.008.296 0 .102.012.211.027.328.047.114.023.243.047.391.078v-1.266c-.012-.414.031-.75.125-1 .102-.257.242-.492.422-.703-.313 0-.574.012-.781.032a2.306 2.306 0 0 0-.563.093 2.64 2.64 0 0 0-.453.172 7.397 7.397 0 0 0-.469.281l-.453-.64c.406-.25.766-.422 1.078-.516.313-.094.672-.14 1.078-.14l2.72.062v.688ZM7.547-1.671a3.916 3.916 0 0 0-1-.156c-.106 0-.23.012-.375.031a3.003 3.003 0 0 0-.39.094c-.169.055-.29.133-.36.234a.492.492 0 0 0-.11.313c0 .156.055.289.172.39.114.106.243.184.391.235.156.054.305.09.453.11.145.01.242.015.297.015.375 0 .617-.086.734-.266.125-.176.188-.43.188-.765Zm0 0" id="ak"/><path d="M6.484-6.078c.477 0 .907.058 1.282.172.382.105.707.265.968.484.27.219.473.492.61.813.133.324.195.699.187 1.125A3.047 3.047 0 0 1 9.25-2.47c-.156.367-.406.7-.75 1-.336.305-.762.559-1.281.766-.524.2-1.137.297-1.844.297h-.719v-.906h.719c.32 0 .672-.04 1.047-.125a3.999 3.999 0 0 0 1.031-.407c.32-.176.586-.398.797-.672a1.64 1.64 0 0 0 .344-.984c.008-.32-.031-.594-.125-.813a1.13 1.13 0 0 0-.438-.515 1.795 1.795 0 0 0-.687-.281 4.502 4.502 0 0 0-.86-.079H2.86v-.89Zm0 0" id="al"/><path d="M4.234-.031a17.766 17.766 0 0 1-1.093-.813 2.8 2.8 0 0 1-.625-.75 2.726 2.726 0 0 1-.297-.937 11.956 11.956 0 0 1-.063-1.36V-8h.969v4.11c0 .511.016.917.047 1.218.039.305.117.555.234.75.125.2.297.375.516.531.219.157.504.36.86.61Zm5.157-3.297c0-.445-.012-.813-.032-1.094a2.586 2.586 0 0 0-.171-.766 2.744 2.744 0 0 0-.391-.687 15.71 15.71 0 0 0-.735-.89l.766-.548c.363.407.645.762.844 1.063.207.293.36.586.453.875a3.4 3.4 0 0 1 .188.906c.03.313.046.696.046 1.14v1.407h-.968Zm0 0" id="am"/></defs><g fill="#2F2F32"><use xlink:href="#a" x="226.917" y="82.561"/><use xlink:href="#b" x="253.277" y="82.561"/><use xlink:href="#c" x="279.637" y="82.561"/></g><g fill="#3C3D41"><use xlink:href="#d" x="73.058" y="203.258"/><use xlink:href="#e" x="107.075" y="203.258"/></g><path fill="none" stroke-width="4" stroke="#3C3D41" stroke-miterlimit="10" d="M65.18 202.43h402.554"/><g fill="#3C3D41"><use xlink:href="#f" x="181.632" y="191.647"/><use xlink:href="#g" x="193.733" y="191.647"/><use xlink:href="#h" x="205.833" y="191.647"/><use xlink:href="#i" x="217.934" y="191.647"/><use xlink:href="#j" x="230.035" y="191.647"/><use xlink:href="#k" x="242.135" y="191.647"/><use xlink:href="#l" x="254.236" y="191.647"/></g><g fill="#3C3D41"><use xlink:href="#m" x="260.286" y="191.647"/><use xlink:href="#n" x="272.387" y="191.647"/><use xlink:href="#o" x="279.369" y="191.647"/><use xlink:href="#p" x="286.448" y="191.647"/><use xlink:href="#q" x="291.53" y="191.647"/><use xlink:href="#r" x="299.286" y="191.647"/><use xlink:href="#r" x="305.337" y="191.647"/><use xlink:href="#s" x="308.277" y="191.647"/><use xlink:href="#r" x="313.214" y="191.647"/><use xlink:href="#t" x="319.265" y="191.647"/><use xlink:href="#u" x="327.662" y="191.647"/><use xlink:href="#v" x="334.777" y="191.647"/><use xlink:href="#p" x="341.893" y="191.647"/><use xlink:href="#w" x="346.975" y="191.647"/><use xlink:href="#g" x="359.075" y="191.647"/><use xlink:href="#x" x="371.176" y="191.647"/><use xlink:href="#y" x="383.277" y="191.647"/><use xlink:href="#z" x="395.377" y="191.647"/><use xlink:href="#A" x="407.478" y="191.647"/></g><g fill="#3C3D41"><use xlink:href="#d" x="73.058" y="314.213"/><use xlink:href="#B" x="107.075" y="314.213"/></g><path fill="none" stroke-width="4" stroke="#3C3D41" stroke-miterlimit="10" d="M65.18 313.387h402.554"/><g fill="#3C3D41"><use xlink:href="#C" x="228" y="302.602"/><use xlink:href="#D" x="240.101" y="302.602"/><use xlink:href="#E" x="252.202" y="302.602"/><use xlink:href="#F" x="264.302" y="302.602"/><use xlink:href="#G" x="276.403" y="302.602"/><use xlink:href="#H" x="288.503" y="302.602"/><use xlink:href="#I" x="300.604" y="302.602"/><use xlink:href="#J" x="312.705" y="302.602"/><use xlink:href="#K" x="324.805" y="302.602"/><use xlink:href="#H" x="336.906" y="302.602"/><use xlink:href="#L" x="349.007" y="302.602"/><use xlink:href="#M" x="361.107" y="302.602"/></g><g fill="#3C3D41"><use xlink:href="#d" x="73.058" y="425.167"/><use xlink:href="#N" x="107.075" y="425.167"/></g><path fill="none" stroke-width="4" stroke="#3C3D41" stroke-miterlimit="10" d="M65.18 424.34h402.554"/><g fill="#3C3D41"><use xlink:href="#d" x="73.058" y="536.122"/><use xlink:href="#O" x="107.075" y="536.122"/></g><path fill="none" stroke-width="4" stroke="#3C3D41" stroke-miterlimit="10" d="M65.18 535.297h402.554"/><g fill="#3C3D41"><use xlink:href="#d" x="73.058" y="647.078"/><use xlink:href="#P" x="107.075" y="647.078"/></g><path fill="none" stroke-width="4" stroke="#3C3D41" stroke-miterlimit="10" d="M65.18 646.25h402.554"/><g fill="#3C3D41"><use xlink:href="#Q" x="191.699" y="413.427"/><use xlink:href="#R" x="203.799" y="413.427"/><use xlink:href="#S" x="215.9" y="413.427"/><use xlink:href="#T" x="228" y="413.427"/><use xlink:href="#U" x="240.101" y="413.427"/><use xlink:href="#V" x="252.202" y="413.427"/><use xlink:href="#W" x="264.302" y="413.427"/><use xlink:href="#X" x="276.403" y="413.427"/><use xlink:href="#Y" x="288.503" y="413.427"/><use xlink:href="#Z" x="300.604" y="413.427"/><use xlink:href="#aa" x="312.705" y="413.427"/><use xlink:href="#ab" x="324.805" y="413.427"/><use xlink:href="#ac" x="336.906" y="413.427"/><use xlink:href="#ad" x="349.007" y="413.427"/><use xlink:href="#ae" x="361.107" y="413.427"/><use xlink:href="#K" x="373.208" y="413.427"/><use xlink:href="#A" x="385.308" y="413.427"/><use xlink:href="#af" x="397.409" y="413.427"/></g><g fill="#3C3D41"><use xlink:href="#ag" x="276.403" y="524.571"/><use xlink:href="#k" x="288.503" y="524.571"/><use xlink:href="#U" x="300.604" y="524.571"/><use xlink:href="#ah" x="312.705" y="524.571"/></g><g fill="#3C3D41"><use xlink:href="#V" x="197.749" y="636.356"/><use xlink:href="#W" x="209.85" y="636.356"/><use xlink:href="#X" x="221.95" y="636.356"/><use xlink:href="#Y" x="234.051" y="636.356"/><use xlink:href="#Z" x="246.151" y="636.356"/><use xlink:href="#aa" x="258.252" y="636.356"/><use xlink:href="#ab" x="270.353" y="636.356"/><use xlink:href="#ac" x="282.453" y="636.356"/><use xlink:href="#ai" x="294.554" y="636.356"/><use xlink:href="#aj" x="306.654" y="636.356"/><use xlink:href="#E" x="318.755" y="636.356"/><use xlink:href="#ak" x="330.856" y="636.356"/><use xlink:href="#al" x="342.956" y="636.356"/><use xlink:href="#I" x="355.057" y="636.356"/><use xlink:href="#am" x="367.157" y="636.356"/><use xlink:href="#K" x="379.258" y="636.356"/><use xlink:href="#A" x="391.359" y="636.356"/></g></svg>