<svg xmlns="http://www.w3.org/2000/svg" viewBox="0 0 345.71 412.71"><defs><linearGradient id="e" x1="366.69" y1="445.86" x2="57.14" y2="63.38" gradientUnits="userSpaceOnUse"><stop offset="0" stop-color="#e01424"/><stop offset=".79" stop-color="#e4762d"/><stop offset="1" stop-color="#e79c2d"/></linearGradient><style>.f{fill:#fff}</style></defs><g id="b"><g id="c"><g id="d"><path style="fill:url(#e)" d="M0 0h345.71v412.71H0z"/><path style="stroke-width:.75px;fill:none;stroke:#fff;stroke-miterlimit:10" d="m107.23 132.51 89.85 89.86-1.96-5.77"/><path class="f" d="M64.27 70.58H47.85L47 75.84c1.78-.28 3.2-.36 3.84-.36 6.33 0 10.31 2.42 12.51 4.69 2.13 2.13 4.34 5.76 4.34 11.23s-2.27 9.53-4.55 11.87c-4.41 4.55-10.24 5.33-14.79 5.33-7.18 0-12.16-1.85-16-4.27l1.85-11.52c2.49 2.27 4.91 3.48 5.69 3.84 2.13 1 4.76 1.64 7.11 1.64 2.49 0 4.76-.85 6.18-2.35 1.07-1.14 1.85-2.84 1.85-4.83 0-2.49-1.21-4.19-2.27-5.12-2.56-2.27-6.97-2.35-8.53-2.35-3.34 0-6.18.71-8.74 1.99l4.12-25.52h24.67v10.45Zm66.76 36.97H93l12.01-12.58c4.27-4.48 7.46-8.39 9.74-12.01 1.28-1.99 2.56-4.34 2.56-7.39 0-.5 0-2.99-1.42-4.55-.71-.78-1.92-1.42-3.48-1.42-1.99 0-3.34.92-4.12 1.92-1.14 1.49-1.64 4.19-1.71 5.83H93.85c.07-6.19 2.77-10.66 5.26-13.15 3.2-3.2 7.54-5.12 13.44-5.12 7.11 0 11.23 2.77 13.36 4.91 1.92 1.92 4.62 5.54 4.62 11.66s-2.77 10.1-7.04 14.08l-7.96 7.39h15.5v10.45Z"/><circle class="f" cx="80.44" cy="104.65" r="3.44"/><path class="f" d="M143.92 96.82h3.84v1.3c.91-1.1 2.16-1.49 3.22-1.49.77 0 1.49.17 2.06.48.79.41 1.22 1.01 1.49 1.54.43-.77.98-1.22 1.46-1.49.77-.43 1.51-.53 2.23-.53.79 0 2.09.12 2.98.98.96.94 1.01 2.21 1.01 2.95v6.98h-3.84v-5.3c0-1.13-.12-1.9-.55-2.3-.22-.19-.5-.36-1.01-.36-.43 0-.79.12-1.13.43-.65.62-.7 1.51-.7 2.04v5.5h-3.84v-5.3c0-1.03-.07-1.85-.5-2.3-.34-.36-.77-.43-1.15-.43-.41 0-.74.07-1.06.38-.67.65-.67 1.68-.67 2.35v5.3h-3.84V96.82Zm31.75 9.32c-1.42 1.39-3.07 1.78-4.8 1.78-1.56 0-3.29-.31-4.78-1.78-1.18-1.15-1.66-2.52-1.66-3.96 0-1.92.86-3.17 1.66-3.94.89-.86 2.45-1.78 4.78-1.78s3.91.94 4.8 1.78c.79.77 1.66 2.02 1.66 3.94 0 1.44-.48 2.81-1.66 3.96Zm-6.5-5.71c-.48.46-.74 1.13-.74 1.75s.31 1.27.74 1.7c.46.46 1.08.72 1.73.72s1.25-.26 1.7-.72c.48-.46.74-1.08.74-1.7 0-.58-.26-1.27-.74-1.75-.43-.41-1.1-.7-1.7-.7s-1.3.29-1.73.7Zm10.36-3.61h3.84v1.34c1.06-1.39 2.47-1.58 3.41-1.58 1.1 0 2.28.26 3.17 1.15.91.91 1.01 1.82 1.01 3v6.82h-3.84v-5.42c0-.62.02-1.56-.48-2.09-.36-.38-.84-.46-1.22-.46-.6 0-1.1.22-1.42.5-.38.36-.62 1.06-.62 1.7v5.76h-3.84V96.81Zm22.42 169.1h-16.42l-.85 5.26c1.78-.28 3.2-.36 3.84-.36 6.33 0 10.31 2.42 12.51 4.69 2.13 2.13 4.34 5.76 4.34 11.23s-2.27 9.53-4.55 11.87c-4.41 4.55-10.24 5.33-14.79 5.33-7.18 0-12.16-1.85-16-4.27l1.85-11.52c2.49 2.28 4.91 3.48 5.69 3.84 2.13 1 4.76 1.64 7.11 1.64 2.49 0 4.76-.85 6.18-2.35 1.07-1.14 1.85-2.84 1.85-4.83 0-2.49-1.21-4.19-2.27-5.12-2.56-2.28-6.97-2.35-8.53-2.35-3.34 0-6.18.71-8.74 1.99l4.12-25.52h24.67v10.45Zm41.45 20.76c.07 1.78.78 3.62 1.92 4.76 1.07 1.14 2.77 1.85 4.83 1.85 2.42 0 3.91-1.07 4.83-2.06 1.07-1.21 1.42-2.49 1.42-3.91 0-2.06-1-3.48-1.85-4.19-1.21-1-3.06-1.35-4.55-1.35-.78 0-1.42.07-2.06.28v-8.32c2.49.36 4.05-.36 5.05-1.21 1.14-1 1.56-2.28 1.56-3.34 0-1.28-.57-2.7-1.28-3.41-.78-.78-2.13-1.28-3.48-1.28-1.49 0-2.7.5-3.41 1.21-1.07 1-1.64 2.7-1.64 4.19h-11.45c.28-4.98 2.49-8.74 4.62-10.88 3.48-3.63 7.96-4.62 12.51-4.62 3.55 0 8.25.71 11.8 4.19 2.35 2.35 3.84 5.55 3.84 9.17 0 2.06-.36 3.91-1.42 5.83-.85 1.56-1.92 2.77-3.63 3.63 2.91 1.07 4.62 2.91 5.62 4.34 1.35 1.99 1.99 4.27 1.99 6.97 0 5.05-2.2 8.39-4.19 10.38-2.56 2.56-7.11 5.05-14.15 5.05-4.55 0-9.46-1.07-13.58-4.91-2.42-2.2-5.33-6.26-5.9-12.37h12.58Z"/><circle class="f" cx="218.13" cy="299.99" r="3.44"/><path class="f" d="M286.58 296.37v7.58h-3.84v-7.58h-1.22v-3.14h1.22v-3.53h3.84v3.53h2.18v3.14h-2.18Zm7.47-3.14v6c0 .43.07 1.1.58 1.56.38.34.89.41 1.34.41.48 0 .94-.05 1.37-.46.48-.48.55-1.03.55-1.51v-6h3.84v6.7c0 .91-.07 1.9-1.03 2.88-1.32 1.37-3.17 1.51-4.63 1.51-1.61 0-3.58-.17-4.85-1.54-.82-.86-1.01-1.82-1.01-2.86v-6.7h3.84Zm21.69 6.07h-7.99c0 .58.22 1.34.67 1.8.24.24.72.53 1.58.53.1 0 .77-.02 1.25-.29.24-.14.5-.38.67-.72h3.67c-.17.6-.5 1.44-1.3 2.21-.79.77-2.04 1.49-4.37 1.49-1.42 0-3.12-.31-4.44-1.63-.7-.7-1.58-2.02-1.58-4.06 0-1.8.67-3.24 1.61-4.15.89-.86 2.28-1.56 4.39-1.56 1.25 0 2.86.26 4.13 1.46 1.51 1.44 1.7 3.31 1.7 4.51v.41Zm-3.53-2.21c-.1-.41-.34-.86-.62-1.15-.5-.5-1.2-.58-1.58-.58-.65 0-1.15.17-1.56.58-.26.29-.5.67-.58 1.15h4.34Z"/><path d="M170.03 315.65h175.68M0 116.7h190.95" style="fill:none;stroke:#fff;stroke-miterlimit:10"/><path class="f" d="M105.84 374.97c.22-.22.41-.43.59-.65l-1.98-.04c.19.31.35.62.49.91.02.06.04.1.04.13 0 .05-.07.09-.2.12l-1.2.27c-.1.02-.16.03-.19.03-.07 0-.13-.06-.17-.19-.17-.51-.35-.93-.53-1.27h-1.29c-.33.49-.78 1-1.34 1.53-.19.19-.32.29-.4.29-.06 0-.2-.11-.4-.33-.24-.26-.53-.5-.88-.72 1.02-.87 1.78-1.83 2.29-2.88.12-.22.23-.49.33-.83.56.06 1.08.14 1.58.25.18.04.27.11.27.24 0 .07-.05.16-.14.25-.12.12-.23.27-.31.45l-.17.31h2.09l2.1-.04c.11 0 .17.01.19.04.02.02.03.08.03.16v1.06c.46-.59.82-1.2 1.1-1.85.09-.18.19-.46.29-.84.53.05 1.04.13 1.51.25.19.05.29.13.29.24 0 .07-.05.16-.15.25-.08.06-.17.21-.27.43l-.12.31h2.65l2.58-.04c.12 0 .18.06.18.19v1.12c0 .13-.06.2-.18.2l-2.58-.04h-.29c.15.24.32.54.51.91.02.06.04.1.04.13 0 .06-.07.11-.22.14l-1.17.27c-.09.02-.16.03-.19.03-.07 0-.13-.06-.17-.18-.19-.52-.37-.96-.55-1.31h-1.35c-.32.48-.66.91-1.01 1.29-.18.21-.31.31-.38.31-.06 0-.2-.11-.41-.33-.25-.23-.54-.43-.9-.59Zm-5.63 2.64c-.09 0-.15-.01-.18-.04-.02-.02-.03-.08-.03-.16v-1.15c0-.1.01-.16.04-.18.02-.02.07-.03.16-.03l2.44.04h7.37l2.87-.04c.1 0 .16.01.18.04.02.02.03.08.03.17l-.04 1.34v1.17l.04 1.36c0 .1-.01.16-.04.18-.02.02-.08.03-.17.03l-2.87-.04h-2.5l.02 1.25h3.95l2.52-.04c.15 0 .22.05.22.16v.06c-.02.11-.07.64-.17 1.6-.11 1.22-.31 2.07-.6 2.52-.36.62-1.06.93-2.12.93-.41 0-.76-.01-1.05-.04-.26-.02-.43-.06-.49-.14-.05-.06-.11-.23-.16-.49-.07-.36-.21-.77-.41-1.22.7.12 1.29.18 1.78.18s.79-.11.91-.34c.14-.28.24-.85.29-1.71h-4.67l.04 1.65c0 .73.03 1.44.06 2.14.03.55.04.84.04.87 0 .11-.01.17-.04.18-.02.02-.08.04-.18.04h-1.51c-.09 0-.15-.01-.17-.04-.02-.02-.03-.08-.03-.18l.02-2.03v-.96l-.02-.74c-1.48 1.55-3.39 2.7-5.75 3.46-.26.07-.41.11-.43.11-.11 0-.23-.14-.38-.43-.22-.43-.48-.81-.77-1.12 2.71-.69 4.77-1.68 6.18-2.95h-3.12l-.18.5c-.04.12-.13.18-.27.18-.09 0-.32-.02-.7-.05-.62-.06-.92-.14-.92-.22 0-.02 0-.05.03-.09.42-1.04.76-2.12 1.03-3.24.12-.47.19-.84.21-1.1.02-.16.09-.24.22-.24l2.44.04h2.36l-.03-1.24h-3.04l-2.44.04Zm1.77 3.95h3.78l-.02-1.25h-3.43l-.33 1.25Zm9.26-3.98h-3.76l.02 1.24h3.74v-1.24Zm15.56-4.76v1.6c-1.22 1.97-2.12 3.98-2.72 6.03-.52 1.81-.86 3.85-1.01 6.11h-2.53c.2-2.42.7-4.69 1.5-6.81.62-1.63 1.48-3.33 2.58-5.09h-6.17v-1.84h8.35Zm10.3 2.01-2.2.82c-.19-.9-.67-1.35-1.43-1.35-1.58 0-2.41 1.62-2.49 4.86.63-1.08 1.56-1.62 2.8-1.62 1.15 0 2.06.45 2.72 1.34.58.79.87 1.83.87 3.1 0 1.57-.44 2.8-1.33 3.69-.75.76-1.71 1.13-2.87 1.13-1.48 0-2.6-.59-3.35-1.78-.71-1.11-1.06-2.72-1.06-4.82 0-5.09 1.58-7.63 4.75-7.63 1.76 0 2.95.75 3.58 2.24Zm-6.1 6.18c0 2.71.72 4.07 2.16 4.07 1.29 0 1.94-1.01 1.94-3.02 0-1.86-.62-2.79-1.85-2.79-.93 0-1.68.58-2.25 1.74Zm12.45 6.77c0 .09-.01.15-.04.18-.02.02-.08.03-.16.03h-1.56c-.09 0-.14-.01-.16-.03s-.03-.08-.03-.17l.04-6.89v-3.54l-.04-4.95c0-.1.01-.16.04-.18s.08-.03.17-.03l2.41.04h9.7l2.42-.04c.09 0 .15.01.17.04s.03.08.03.17l-.04 4.33v4.16l.04 6.87c0 .09-.01.15-.04.18-.02.02-.08.03-.16.03h-1.55c-.1 0-.16-.01-.18-.04s-.03-.08-.03-.17v-.86h-11.04v.88Zm11.04-13.83h-11.04v11.26h11.04v-11.26Zm-2.21 4.23v2.52l.04 2.46c0 .09-.01.15-.03.17-.02.02-.07.03-.16.03h-1.39c-.11 0-.17-.01-.19-.04-.02-.02-.03-.07-.03-.16v-.43h-3.16v.43c0 .09-.01.15-.04.18-.02.02-.08.03-.17.03h-1.41c-.09 0-.15-.01-.17-.04-.02-.02-.03-.07-.03-.16l.04-2.46v-2.43l-.04-1.8c0-.09.01-.15.04-.17s.08-.03.17-.03l1.96.04h2.46l1.94-.04c.1 0 .16.01.18.04s.03.08.03.16l-.04 1.71Zm-1.77-.27h-3.16v3.21h3.16v-3.21Zm9.17-1.54c.64.42 1.35.98 2.11 1.69.07.08.11.13.11.17 0 .05-.04.12-.11.23l-.74 1.06c-.08.11-.14.17-.18.17-.04 0-.09-.04-.16-.11-.77-.78-1.47-1.39-2.09-1.84-.08-.05-.12-.1-.12-.15 0-.05.04-.12.11-.21l.72-.96c.06-.08.13-.12.18-.12.05 0 .11.02.18.07Zm-1.13 10.27c.31-.45.56-.92.76-1.42.56-1.38 1.01-2.76 1.35-4.14.22.24.51.5.86.77.28.21.42.39.42.53 0 .08-.03.22-.08.4-.33 1.23-.77 2.53-1.32 3.88-.13.32-.21.56-.23.7-.02.18-.09.27-.2.27-.08 0-.18-.04-.3-.11-.5-.3-.92-.6-1.27-.91Zm1.51-14.69c.83.62 1.49 1.18 1.99 1.7.07.07.11.13.11.18 0 .05-.04.13-.11.22l-.84 1.05c-.07.07-.12.11-.16.11-.02 0-.07-.04-.15-.11-.63-.71-1.28-1.3-1.94-1.78-.07-.05-.11-.1-.11-.14s.04-.11.11-.2l.77-.92c.09-.1.16-.15.2-.15.04 0 .08.02.14.06Zm6.3 10.39h-.4c-.03.22-.08.47-.14.77h.77l1.92-.04c.11 0 .17.01.18.04s.03.08.03.17v.95c0 .09-.01.15-.03.17s-.08.03-.18.03l-1.92-.04h-.22c.6.71 1.39 1.25 2.37 1.63-.19.19-.4.52-.62.98-.14.28-.25.41-.33.41-.06 0-.19-.07-.4-.2-.9-.58-1.65-1.33-2.25-2.25a6.394 6.394 0 0 1-2.32 2.63c-.22.15-.35.22-.41.22-.07 0-.18-.1-.33-.31a4.57 4.57 0 0 0-.87-.9c1.1-.58 1.92-1.32 2.45-2.21-.4 0-.76.01-1.08.03h-.34c-.12 0-.18-.07-.18-.2v-.93c0-.11.01-.17.04-.19.02-.02.06-.03.14-.03l1.94.04h.04c.09-.29.16-.55.18-.77l-1.78.02c-.1 0-.16-.01-.18-.04-.02-.02-.03-.06-.03-.14v-.96c0-.09.01-.15.04-.17s.08-.03.18-.03l1.78.04h.14l.02-.74h-.25l-1.77.04c-.11 0-.17-.01-.19-.04-.02-.02-.03-.08-.03-.18l.04-1.19v-.79l-.04-1.19c0-.1.01-.16.04-.18.02-.02.08-.03.18-.03l1.77.04h.33v-.66l-1.17.04c-.11 0-.17-.01-.19-.04-.02-.02-.03-.08-.03-.17l.04-1.51v-.18l-.76.02c-.09 0-.15-.01-.18-.04-.02-.02-.03-.08-.03-.18v-.93c0-.11.01-.17.04-.19.02-.02.07-.03.16-.03h.24l.52.03c0-.67-.02-1.17-.07-1.49.5.02.98.05 1.42.11.16.02.24.07.24.17 0 .07-.02.15-.07.25-.06.11-.09.42-.09.94v.04h1.36c0-.61-.04-1.11-.11-1.49.52.02.98.05 1.39.09.22.04.33.1.33.18 0 .04-.02.11-.07.23-.05.1-.08.42-.08.96v.04l1.1-.04c.09 0 .15.01.18.04.02.03.03.09.03.18v.93c0 .11-.01.17-.04.19-.02.02-.08.03-.17.03-.01 0-.13 0-.34-.02-.23 0-.49-.01-.76-.03v.2l.02 1.51c0 .1-.01.16-.04.18s-.08.03-.16.03l-1.27-.04v.66h.31l1.8-.04c.13 0 .2.05.2.15.64-.99 1.2-2.41 1.65-4.25.11-.44.18-.87.22-1.29l1.52.36c.19.06.29.13.29.23 0 .08-.05.18-.16.33-.08.09-.17.35-.29.76-.18.63-.35 1.17-.5 1.61h1.04c.28-.74.5-1.41.67-2 .1-.36.16-.74.18-1.12.57.11 1.03.23 1.38.36.21.07.31.16.31.25 0 .08-.05.17-.14.29-.09.08-.19.3-.31.66-.13.41-.32.93-.56 1.56l1.21-.04c.09 0 .15.01.17.04.02.02.03.08.03.18v1.2c0 .11-.01.17-.04.19-.02.02-.08.03-.16.03l-1.35-.04v1.84l1.06-.04c.1 0 .16.01.18.04.02.02.03.08.03.16v1.28c0 .09-.01.15-.04.17s-.08.03-.18.03h-.33c-.22-.01-.46-.02-.73-.03v1.91l1.06-.04c.11 0 .17.01.18.04.02.02.03.08.03.18v1.26c0 .09-.01.14-.03.16s-.08.03-.18.03h-.33c-.22-.01-.46-.02-.73-.03v2.38l1.51-.04c.11 0 .17.01.18.04.02.02.04.08.04.16v1.28c0 .09-.01.15-.04.17-.02.02-.08.03-.18.03l-1.85-.04h-2.41v.62c0 .09-.01.15-.04.17s-.08.03-.17.03h-1.15c-.09 0-.15-.01-.17-.04s-.03-.08-.03-.16l.04-2.14v-7.59s-.13-.11-.24-.22c-.13-.12-.36-.27-.7-.45v1.6l.04 1.19c0 .11-.01.17-.04.19-.02.02-.08.03-.17.03l-1.8-.04h-.29c0 .18-.01.42-.04.74h.27l1.78-.04c.11 0 .17.01.18.04s.03.08.03.16v.96c0 .08-.01.13-.04.15s-.08.03-.18.03l-1.78-.02Zm-2.66-3.16h.96v-1.23h-.96v1.23Zm2.39-4.16v-.75h-1.36v.75h1.36Zm.99 4.16v-1.23h-.98v1.23h.98Zm3.74-1.12h1.29v-1.84h-1.29v1.84Zm0 3.51h1.29v-1.91h-1.29v1.91Zm0 3.98h1.29v-2.38h-1.29v2.38Zm6.85-1.74c-.11.18-.21.27-.29.27-.06 0-.13-.1-.19-.31-.18-.56-.39-1.01-.62-1.35 1.24-1.63 2.14-3.53 2.7-5.69h-.31l-1.74.04c-.09 0-.15-.01-.18-.04-.02-.02-.03-.08-.03-.17v-1.28c0-.12.07-.18.2-.18l1.74.04h.41v-1.2c0-1.07-.05-1.9-.14-2.47.69.02 1.29.06 1.8.12.21.02.31.08.31.18s-.04.23-.11.4c-.09.17-.13.75-.13 1.73v1.24l1.58-.04c.13 0 .2.06.2.18v1.28c0 .1-.01.16-.04.18-.02.02-.08.03-.17.03l-1.53-.04c.43 1.2 1.1 2.33 1.99 3.4-.25.32-.47.71-.65 1.17-.09.22-.17.33-.22.33-.06 0-.15-.1-.25-.29-.39-.68-.71-1.43-.98-2.25 0 2.02.03 4.1.07 6.27.01.47.03 1.08.04 1.81v.56c0 .11-.01.17-.04.19-.02.02-.08.03-.18.03h-1.46c-.1 0-.16-.01-.18-.04-.02-.03-.03-.09-.03-.18 0-.02 0-.44.03-1.24.06-2.34.09-4.53.11-6.57-.44 1.45-1.03 2.75-1.77 3.88Zm15.71 2.23c-.32.38-.6.8-.83 1.27-.14.29-.26.43-.36.43-.06 0-.2-.05-.41-.14-1.65-.74-2.99-1.62-4.02-2.63-1.12 1.1-2.57 2.02-4.34 2.76-.21.09-.35.14-.43.14-.09 0-.21-.14-.36-.43-.26-.47-.55-.83-.86-1.08 1.97-.63 3.57-1.55 4.81-2.76-.66-.9-1.24-2-1.73-3.3-.02-.05-.04-.09-.04-.12 0-.05.08-.11.24-.19l1.04-.58a.46.46 0 0 1 .18-.06c.06 0 .11.06.15.18.36 1 .8 1.88 1.32 2.63.25-.38.5-.85.74-1.4.23-.54.38-1.06.45-1.55.62.23 1.14.49 1.58.76.17.1.25.19.25.26 0 .11-.07.23-.2.36-.12.12-.25.37-.41.76-.34.81-.74 1.56-1.2 2.23 1.07 1 2.55 1.82 4.45 2.45Zm-8.17-10.08c.49.18.96.38 1.41.61.18.11.27.21.27.29 0 .11-.06.21-.18.31-.11.1-.25.29-.43.56-.47.81-1.15 1.63-2.01 2.46-.21.19-.34.29-.4.29-.07 0-.18-.13-.34-.38-.22-.32-.51-.61-.87-.88.81-.63 1.54-1.43 2.16-2.4.16-.27.3-.56.4-.86Zm.41-.4-2.39.04c-.09 0-.15-.01-.18-.04-.02-.02-.03-.08-.03-.16v-1.37c0-.09.01-.15.04-.18.02-.02.08-.03.17-.03l2.39.04h1.15v-.53c0-.77-.04-1.4-.12-1.91.79.02 1.44.06 1.96.12.21.02.31.08.31.18 0 .08-.04.21-.11.38-.1.19-.15.6-.15 1.22v.53h1.66l2.37-.04c.11 0 .17.01.18.04.02.02.04.08.04.17v1.37c0 .09-.01.15-.04.17-.02.02-.08.03-.18.03l-2.37-.04h-4.7Zm4.59.54c.8 1.17 1.78 2.1 2.95 2.81-.33.35-.6.72-.81 1.12-.13.26-.24.4-.33.4-.07 0-.2-.07-.38-.22-1.18-.91-2.15-2-2.89-3.26-.04-.06-.06-.1-.06-.13 0-.05.07-.11.2-.18l.93-.58c.11-.06.18-.09.21-.09.05 0 .1.05.17.14Zm20.83 9.7c-.36.4-.64.9-.84 1.49-.12.31-.24.47-.36.47-.08 0-.22-.03-.42-.09-2.47-.86-4.61-2.05-6.42-3.57-1.78 1.48-3.92 2.66-6.42 3.53-.26.07-.41.11-.43.11-.11 0-.23-.15-.34-.45-.18-.51-.45-.96-.81-1.34 2.78-.85 4.97-1.91 6.59-3.19-1.48-1.59-2.64-3.77-3.5-6.53h-.34l-2.29.04c-.09 0-.15-.01-.17-.04s-.03-.08-.03-.16v-1.47c0-.09.01-.15.04-.17s.08-.03.16-.03l2.29.04h4.14v-.86c0-.88-.05-1.58-.14-2.07.9.02 1.57.07 2 .13.19 0 .29.06.29.19 0 .07-.04.19-.11.36-.07.12-.11.57-.11 1.35v.9h4.44l2.29-.04c.11 0 .17.01.19.04.02.02.03.08.03.16v1.47c0 .09-.01.15-.04.17-.03.02-.09.03-.18.03l-2.29-.04h-.41c-.74 2.7-1.87 4.87-3.38 6.51 1.71 1.31 3.91 2.33 6.59 3.06Zm-5.33-9.57h-5.68c.67 2.16 1.66 3.91 2.97 5.26 1.21-1.26 2.12-3.01 2.71-5.26Zm6.93 2.66c1.9-1.71 3.28-3.74 4.16-6.09.17-.43.29-.85.36-1.26.6.15 1.18.35 1.75.58.21.08.31.16.31.26 0 .12-.06.22-.17.31-.12.09-.27.35-.45.77-.35.84-.73 1.61-1.13 2.32v9.2l.04 2.73c0 .12-.07.18-.2.18h-1.56c-.1 0-.16-.01-.18-.04-.02-.02-.03-.07-.03-.15l.04-2.73v-4.07c0-.48.01-1.25.04-2.3-.6.78-1.14 1.4-1.6 1.87-.2.18-.33.27-.4.27-.09 0-.18-.13-.27-.4-.13-.46-.36-.95-.69-1.48Zm14.45 3.67c.39.29.85.54 1.39.74.19.07.3.12.34.16.05.04.07.11.07.21 0 .04 0 .13-.02.26-.06.92-.19 1.61-.38 2.08-.15.39-.38.69-.67.91-.59.41-1.67.62-3.26.62s-2.65-.12-3.13-.36c-.34-.16-.58-.4-.73-.7s-.22-.73-.22-1.27v-11.36c0-.94-.04-1.64-.11-2.08.7.02 1.34.06 1.92.12.23.02.34.1.34.24 0 .08-.04.2-.11.34-.08.15-.12.55-.12 1.22v4.5c1.12-.7 2.23-1.58 3.33-2.65.41-.37.76-.78 1.06-1.23.47.35.93.75 1.4 1.2.13.13.2.25.2.36 0 .13-.1.22-.31.28-.21.08-.52.3-.94.69a30.075 30.075 0 0 1-4.75 3.49v4.27c0 .35.04.59.11.73.08.13.21.23.39.3.25.08.85.12 1.78.12s1.51-.15 1.85-.45c.29-.24.47-1.15.54-2.74Zm20.45-3.26c-.23.28-.46.69-.68 1.25-.11.32-.21.48-.31.48-.04 0-.17-.04-.4-.12-1.43-.66-2.72-1.56-3.86-2.72v1.27c0 .09-.01.15-.04.17s-.08.03-.18.03l-1.8-.04h-2.47l-1.79.04c-.09 0-.15-.01-.18-.04-.02-.02-.03-.08-.03-.16v-.77c-1.09.96-2.38 1.8-3.88 2.5-.23.09-.38.14-.43.14-.08 0-.19-.14-.33-.43-.18-.37-.4-.7-.67-.99 1.01-.38 1.93-.83 2.77-1.37a8.05 8.05 0 0 0-.97-1.05c-.06-.06-.09-.11-.09-.14 0-.05.05-.11.16-.18l.65-.48c.09-.07.15-.11.18-.11.05 0 .11.04.18.11.38.3.71.63 1.02 1 .3-.25.58-.5.83-.77-.3-.35-.64-.68-.99-1-.06-.05-.09-.1-.09-.13 0-.04.05-.11.16-.19l.58-.49c.09-.08.16-.11.2-.11.04 0 .1.03.18.08.35.26.65.53.9.8.41-.54.75-1.07 1.03-1.59h-2.27c-.85 1.04-1.82 1.96-2.9 2.75-.23.16-.37.24-.41.24-.07 0-.18-.13-.34-.4-.19-.3-.42-.57-.7-.81 1.52-.87 2.75-2.07 3.71-3.58.16-.27.33-.65.5-1.13.53.09 1.05.2 1.55.33.17.05.25.13.25.22 0 .05-.06.14-.19.27-.08.08-.23.29-.43.65h1.49c.27 0 .43-.02.48-.06.14-.05.22-.07.25-.07.15 0 .38.16.7.48.16.16.26.27.31.33-.18-.46-.31-.87-.41-1.24a.451.451 0 0 1-.03-.13c0-.07.06-.12.17-.14l1.18-.26c.07-.02.12-.03.15-.03.07 0 .12.06.15.17.5 1.62 1.26 3.03 2.29 4.21.61-.59 1.15-1.25 1.61-1.98h-.92l-1.55.04c-.09 0-.15-.01-.17-.04s-.03-.08-.03-.17v-1.11c0-.11.01-.17.04-.19.02-.02.08-.03.16-.03l1.55.04h1.3c.21 0 .35-.02.45-.05.09-.05.17-.07.24-.07.18 0 .43.17.77.5.33.32.5.55.5.7 0 .11-.07.22-.22.33-.04.02-.24.29-.61.79-.54.79-1.19 1.59-1.96 2.39 1.07.9 2.29 1.6 3.68 2.1Zm-12.78 3.86c.3.12.8.39 1.49.79.15.07.22.17.22.29 0 .1-.08.2-.24.29-.11.05-.26.18-.45.4-.73.84-1.69 1.56-2.87 2.18-.18.11-.31.16-.4.16-.11 0-.24-.13-.4-.4-.25-.42-.53-.74-.83-.98 1.14-.5 2.1-1.13 2.88-1.89.24-.24.43-.52.57-.84Zm.31-.52-2.47.04c-.09 0-.15-.01-.17-.04s-.03-.08-.03-.16v-1.27c0-.09.01-.15.04-.17s.08-.03.16-.03l2.47.04h8.09l2.47-.04c.09 0 .15.01.17.04s.03.08.03.16v1.27c0 .09-.01.14-.03.16-.02.02-.07.03-.16.03l-2.47-.04h-3.13v1.41l.05 2.07c0 .64-.19 1.1-.58 1.37-.31.22-1.14.33-2.5.33-.3 0-.47-.02-.52-.06-.05-.05-.1-.18-.13-.4-.08-.5-.23-.96-.43-1.39.49.07 1 .11 1.55.11.29 0 .49-.05.58-.15.07-.08.11-.22.11-.42v-2.85h-3.09Zm4.14-8.48s-.29.44-.74 1.24c-.53.96-1.19 1.84-1.98 2.63.19.01.64.02 1.33.02h2.47l1.84-.04a14.03 14.03 0 0 1-2.72-4.1c-.02.1-.08.18-.2.25Zm7.67 11.54c-.32.32-.61.69-.85 1.13-.13.25-.25.38-.35.38-.09 0-.22-.05-.4-.16-1.39-.75-2.55-1.73-3.46-2.94-.05-.06-.07-.1-.07-.13 0-.05.06-.11.17-.18l.96-.6c.1-.06.17-.09.22-.09.04 0 .09.04.16.11.84.91 2.06 1.73 3.64 2.47Z"/><path style="stroke-width:2px;fill:none;stroke:#fff;stroke-miterlimit:10" d="M157.31 396.43h31.09"/></g></g></g></svg>