<?xml version="1.0" encoding="utf-8"?>
<!-- Generator: Adobe Illustrator 26.0.3, SVG Export Plug-In . SVG Version: 6.00 Build 0)  -->
<svg version="1.1" id="レイヤー_1" xmlns="http://www.w3.org/2000/svg" xmlns:xlink="http://www.w3.org/1999/xlink" x="0px"
	 y="0px" viewBox="0 0 1500 1000" style="enable-background:new 0 0 1500 1000;" xml:space="preserve">
<style type="text/css">
	.st0{fill:#FFFFFF;stroke:#000000;stroke-miterlimit:10;}
	.st1{fill:#FFFFFF;stroke:#000000;stroke-width:0.25;stroke-miterlimit:10;}
</style>
<g>
	<path class="st0" d="M99.1,385.5h117.8l-6.5,32.7H99.1V385.5z M140,437.9l32.7-6.5v183.2H140V437.9z"/>
	<path class="st0" d="M267.6,450.9v117.8c0,6.2,3.3,11.8,8.5,14.4l-10.1,31.4c-18.3-6.9-31.1-26.2-31.1-45.8V450.9H267.6z
		 M290.5,585c9.2,0,16.4-7.2,16.4-16.4V450.9h32.7v117.8c0,27.1-21.9,49.1-49.1,49.1h-6.5L290.5,585z"/>
	<path class="st0" d="M370.6,450.9h32.7v163.6h-32.7V450.9z M422.9,457.5c8.2-4.9,13.1-6.5,21.3-6.5h21.3l-6.5,32.7h-19.6
		c-9.8,0-14.7,1.6-22.9,6.5L422.9,457.5z"/>
	<path class="st0" d="M485.1,450.9h32.7v163.6h-32.7V450.9z M557,500c0-9.2-7.8-16.4-16.4-16.4h-9.8l6.5-32.7h3.3
		c27.1,0,49.1,21.9,49.1,49.1v114.5H557V500z"/>
	<path class="st0" d="M686.2,392.1h32.7v32.7h-32.7V392.1z M686.2,450.9h32.7v163.6h-32.7V450.9z"/>
	<path class="st0" d="M743.5,450.9h19.6v-62.1l32.7-6.5v68.7H822l-6.5,32.7h-78.5L743.5,450.9z M815.4,617.8
		c-28.5,0-52.3-19.6-52.3-49.1v-65.4l32.7-6.5v72c0,9.2,7.2,16.4,16.4,16.4h9.8L815.4,617.8z"/>
	<path class="st0" d="M964.2,415h-13.1c-9.2,0-16.4,7.2-16.4,16.4v137.4c0,9.2,7.2,16.4,16.4,16.4h19.6c9.2,0,16.4-7.2,16.4-16.4
		V431.3c0-6.2-3.3-11.8-8.5-14.4l10.1-31.4c18.3,6.9,31.1,26.2,31.1,45.8v137.4c0,27.1-21.9,49.1-49.1,49.1h-19.6
		c-27.2,0-49.1-21.9-49.1-49.1V431.3c0-27.1,21.9-49.1,49.1-49.1h19.6L964.2,415z"/>
	<path class="st0" d="M1077.1,450.9v65.4c0,14.1,3.9,27.8,9.5,42.5l-16.4,41.9c-9.8-17.7-25.8-50.7-25.8-84.4v-65.4H1077.1z
		 M1149,450.9v65.4c0,49.1-34.3,98.1-34.3,98.1h-36c0,0,37.6-57.2,37.6-98.1v-65.4H1149z"/>
	<path class="st0" d="M1222.6,614.5c-27.2,0-49.1-21.9-49.1-49.1v-68.7c0-29.4,22.9-49.1,52.3-49.1c29.4,0,52.3,19.6,52.3,49.1v52.3
		h-58.9l6.5-32.7h19.6v-19.6c0-13.1-9.8-16.4-19.6-16.4c-9.8,0-19.6,3.3-19.6,16.4v68.7c0,9.2,7.2,16.4,16.4,16.4h49.1l-6.5,32.7
		H1222.6z"/>
	<path class="st0" d="M1306,450.9h32.7v163.6H1306V450.9z M1358.4,457.5c8.2-4.9,13.1-6.5,21.3-6.5h21.3l-6.5,32.7h-19.6
		c-9.8,0-14.7,1.6-22.9,6.5L1358.4,457.5z"/>
</g>
<g>
	<g>
		<path class="st1" d="M345.8,213.5c1.4-1.4,2.6-2.7,3.7-4.1l-12.5-0.2c1.2,2,2.2,3.9,3.1,5.8c0.1,0.4,0.2,0.6,0.2,0.8
			c0,0.3-0.4,0.6-1.3,0.8l-7.6,1.7c-0.6,0.1-1,0.2-1.2,0.2c-0.4,0-0.8-0.4-1.1-1.2c-1.1-3.2-2.2-5.9-3.3-8h-8.2
			c-2.1,3.1-4.9,6.3-8.4,9.6c-1.2,1.2-2,1.8-2.5,1.8c-0.4,0-1.2-0.7-2.5-2.1c-1.5-1.6-3.4-3.1-5.5-4.5c6.4-5.5,11.2-11.6,14.4-18.2
			c0.8-1.4,1.5-3.1,2.1-5.2c3.5,0.4,6.8,0.9,10,1.6c1.1,0.2,1.7,0.7,1.7,1.5c0,0.4-0.3,1-0.9,1.6c-0.8,0.7-1.4,1.7-1.9,2.8l-1.1,1.9
			h13.2l13.3-0.2c0.7,0,1.1,0.1,1.2,0.2c0.1,0.1,0.2,0.5,0.2,1v6.7c2.9-3.7,5.2-7.6,6.9-11.7c0.6-1.1,1.2-2.9,1.8-5.3
			c3.4,0.3,6.5,0.9,9.5,1.6c1.2,0.3,1.8,0.8,1.8,1.5c0,0.4-0.3,1-0.9,1.6c-0.5,0.4-1.1,1.3-1.7,2.7l-0.8,1.9h16.7l16.2-0.2
			c0.7,0,1.1,0.4,1.1,1.2v7c0,0.9-0.4,1.3-1.1,1.3l-16.2-0.2h-1.8c1,1.5,2,3.4,3.2,5.8c0.1,0.4,0.2,0.6,0.2,0.8
			c0,0.4-0.5,0.7-1.4,0.9l-7.4,1.7c-0.6,0.1-1,0.2-1.2,0.2c-0.4,0-0.8-0.4-1.1-1.1c-1.2-3.3-2.3-6-3.5-8.3h-8.5
			c-2,3-4.2,5.7-6.4,8.2c-1.1,1.3-1.9,1.9-2.4,1.9c-0.4,0-1.2-0.7-2.6-2.1C349.9,215.7,348,214.5,345.8,213.5z M310.3,230.1
			c-0.6,0-1-0.1-1.1-0.2c-0.1-0.1-0.2-0.5-0.2-1v-7.3c0-0.6,0.1-1,0.3-1.1c0.1-0.1,0.4-0.2,1-0.2l15.4,0.2h46.5l18.1-0.2
			c0.6,0,1,0.1,1.2,0.2c0.1,0.1,0.2,0.5,0.2,1.1l-0.2,8.5v7.4l0.2,8.6c0,0.6-0.1,1-0.3,1.1c-0.1,0.1-0.5,0.2-1.1,0.2l-18.1-0.2
			h-15.8l0.1,7.9h24.9l15.9-0.2c0.9,0,1.4,0.3,1.4,1c0,0.1,0,0.2,0,0.4c-0.1,0.7-0.5,4.1-1.1,10.1c-0.7,7.7-2,13-3.8,15.9
			c-2.3,3.9-6.7,5.9-13.4,5.9c-2.6,0-4.8-0.1-6.6-0.2c-1.7-0.1-2.7-0.4-3.1-0.9c-0.3-0.4-0.7-1.4-1-3.1c-0.4-2.3-1.3-4.9-2.6-7.7
			c4.4,0.8,8.2,1.2,11.3,1.2c3.1,0,5-0.7,5.8-2.2c0.9-1.8,1.5-5.4,1.8-10.8h-29.4l0.3,10.4c0,4.6,0.2,9.1,0.4,13.5
			c0.2,3.5,0.3,5.3,0.3,5.5c0,0.7-0.1,1.1-0.3,1.2c-0.1,0.1-0.5,0.2-1.1,0.2h-9.5c-0.6,0-0.9-0.1-1.1-0.3c-0.1-0.1-0.2-0.5-0.2-1.1
			l0.1-12.8c0-1,0-3.1,0-6l-0.1-4.7c-9.3,9.8-21.4,17-36.3,21.8c-1.7,0.4-2.6,0.7-2.7,0.7c-0.7,0-1.5-0.9-2.4-2.7
			c-1.4-2.7-3-5.1-4.9-7c17.1-4.4,30.1-10.6,39-18.6h-19.7l-1.1,3.2c-0.3,0.8-0.8,1.2-1.7,1.2c-0.6,0-2-0.1-4.4-0.3
			c-3.9-0.4-5.8-0.9-5.8-1.4c0-0.1,0.1-0.3,0.2-0.6c2.7-6.6,4.8-13.4,6.5-20.5c0.7-3,1.2-5.3,1.3-6.9c0.1-1,0.6-1.5,1.4-1.5
			l15.4,0.2h14.9l-0.2-7.8h-19.2L310.3,230.1z M321.4,255h23.8l-0.1-7.9h-21.6L321.4,255z M379.9,229.9h-23.7l0.1,7.8h23.6V229.9z"
			/>
		<path class="st1" d="M462.2,199.9V210c-7.7,12.4-13.4,25.1-17.1,38c-3.3,11.4-5.4,24.3-6.4,38.5h-16c1.3-15.3,4.4-29.6,9.5-43
			c3.9-10.3,9.3-21,16.2-32.1h-38.9v-11.6H462.2z"/>
		<path class="st1" d="M520.4,212.6l-13.9,5.2c-1.2-5.7-4.2-8.5-9-8.5c-10,0-15.2,10.2-15.7,30.7c4-6.8,9.9-10.2,17.7-10.2
			c7.3,0,13,2.8,17.1,8.5c3.7,5,5.5,11.5,5.5,19.6c0,9.9-2.8,17.7-8.4,23.3c-4.7,4.8-10.8,7.2-18.1,7.2c-9.4,0-16.4-3.7-21.1-11.2
			c-4.5-7-6.7-17.2-6.7-30.4c0-32.1,10-48.1,30-48.1C508.9,198.5,516.4,203.2,520.4,212.6z M481.9,251.6c0,17.1,4.5,25.7,13.6,25.7
			c8.2,0,12.3-6.4,12.3-19.1c0-11.7-3.9-17.6-11.7-17.6C490.2,240.6,485.5,244.3,481.9,251.6z"/>
		<path class="st1" d="M543.3,294.3c0,0.6-0.1,1-0.2,1.1c-0.1,0.1-0.5,0.2-1,0.2h-9.8c-0.6,0-0.9-0.1-1-0.2
			c-0.1-0.1-0.2-0.5-0.2-1.1l0.2-43.5v-22.3l-0.2-31.2c0-0.6,0.1-1,0.2-1.1c0.1-0.1,0.5-0.2,1.1-0.2l15.2,0.2h61.2L624,196
			c0.6,0,0.9,0.1,1.1,0.2c0.1,0.1,0.2,0.5,0.2,1.1l-0.2,27.3v26.2l0.2,43.4c0,0.6-0.1,1-0.2,1.1c-0.1,0.1-0.5,0.2-1,0.2h-9.8
			c-0.6,0-1-0.1-1.1-0.2c-0.1-0.1-0.2-0.5-0.2-1.1v-5.4h-69.7V294.3z M613,207h-69.7v71H613V207z M599,233.7v15.9l0.2,15.5
			c0,0.6-0.1,1-0.2,1.1c-0.1,0.1-0.5,0.2-1,0.2h-8.8c-0.7,0-1.1-0.1-1.2-0.3c-0.1-0.1-0.2-0.4-0.2-1v-2.7h-20v2.7
			c0,0.6-0.1,1-0.2,1.1c-0.1,0.1-0.5,0.2-1.1,0.2h-8.9c-0.6,0-0.9-0.1-1.1-0.3c-0.1-0.1-0.2-0.4-0.2-1l0.2-15.5v-15.4l-0.2-11.4
			c0-0.6,0.1-0.9,0.2-1.1c0.1-0.1,0.5-0.2,1.1-0.2l12.4,0.2h15.5l12.3-0.2c0.6,0,1,0.1,1.1,0.2c0.1,0.1,0.2,0.5,0.2,1L599,233.7z
			 M587.9,231.9h-20v20.2h20V231.9z"/>
	</g>
	<g>
		<path class="st1" d="M646.9,222.4c4.1,2.7,8.5,6.2,13.3,10.6c0.4,0.5,0.7,0.8,0.7,1.1c0,0.3-0.2,0.8-0.7,1.4l-4.7,6.7
			c-0.5,0.7-0.9,1.1-1.2,1.1c-0.2,0-0.6-0.2-1-0.7c-4.9-4.9-9.3-8.8-13.2-11.6c-0.5-0.3-0.8-0.6-0.8-0.9c0-0.3,0.2-0.8,0.7-1.3
			l4.5-6c0.4-0.5,0.8-0.8,1.2-0.8C646.1,222,646.4,222.1,646.9,222.4z M639.7,287.2c2-2.8,3.5-5.8,4.8-8.9
			c3.5-8.7,6.4-17.4,8.5-26.1c1.4,1.5,3.2,3.1,5.4,4.9c1.8,1.3,2.7,2.4,2.7,3.3c0,0.5-0.2,1.4-0.5,2.6c-2.1,7.8-4.8,15.9-8.3,24.5
			c-0.9,2-1.3,3.5-1.4,4.4c-0.1,1.1-0.6,1.7-1.3,1.7c-0.5,0-1.1-0.2-1.9-0.7C644.6,291.1,641.9,289.2,639.7,287.2z M649.3,194.6
			c5.2,3.9,9.4,7.5,12.5,10.7c0.4,0.4,0.7,0.8,0.7,1.1c0,0.3-0.2,0.8-0.7,1.4l-5.3,6.6c-0.4,0.4-0.8,0.7-1,0.7
			c-0.1,0-0.5-0.2-0.9-0.7c-4-4.5-8.1-8.2-12.3-11.3c-0.4-0.3-0.7-0.6-0.7-0.9c0-0.3,0.2-0.7,0.7-1.3l4.9-5.8c0.6-0.6,1-0.9,1.3-0.9
			C648.6,194.2,648.9,194.3,649.3,194.6z M689,260.1h-2.5c-0.2,1.4-0.5,3-0.9,4.9h4.9l12.1-0.2c0.7,0,1.1,0.1,1.2,0.2
			c0.1,0.1,0.2,0.5,0.2,1.1v6c0,0.6-0.1,1-0.2,1.1c-0.1,0.1-0.5,0.2-1.1,0.2l-12.1-0.2h-1.4c3.8,4.5,8.8,7.9,15,10.3
			c-1.2,1.2-2.5,3.3-3.9,6.2c-0.9,1.7-1.6,2.6-2.1,2.6c-0.4,0-1.2-0.4-2.5-1.3c-5.7-3.7-10.4-8.4-14.2-14.2
			c-3.3,6.8-8.2,12.4-14.6,16.6c-1.4,0.9-2.2,1.4-2.6,1.4c-0.4,0-1.1-0.6-2.1-1.9c-1.4-2-3.2-3.8-5.5-5.7c6.9-3.7,12.1-8.3,15.5-14
			c-2.6,0-4.8,0.1-6.8,0.2c-1.4,0-2.1,0.1-2.2,0.1c-0.7,0-1.1-0.4-1.1-1.3v-5.9c0-0.7,0.1-1.1,0.2-1.2c0.1-0.1,0.4-0.2,0.9-0.2
			l12.3,0.2h0.2c0.6-1.8,1-3.5,1.2-4.9l-11.3,0.1c-0.6,0-1-0.1-1.2-0.2c-0.1-0.1-0.2-0.4-0.2-0.9v-6c0-0.6,0.1-0.9,0.2-1.1
			c0.1-0.1,0.5-0.2,1.1-0.2l11.3,0.2h0.9l0.1-4.7h-1.6l-11.1,0.2c-0.7,0-1.1-0.1-1.2-0.3c-0.1-0.1-0.2-0.5-0.2-1.1l0.3-7.5v-5
			l-0.3-7.5c0-0.6,0.1-1,0.3-1.1c0.1-0.1,0.5-0.2,1.1-0.2l11.1,0.2h2.1v-4.2l-7.4,0.2c-0.7,0-1.1-0.1-1.2-0.2
			c-0.1-0.1-0.2-0.5-0.2-1.1l0.2-9.5v-1.1l-4.8,0.1c-0.6,0-1-0.1-1.1-0.3c-0.1-0.1-0.2-0.5-0.2-1.1v-5.9c0-0.7,0.1-1.1,0.3-1.2
			c0.1-0.1,0.4-0.2,1-0.2c0,0,0.5,0,1.5,0.1c1,0.1,2.1,0.1,3.3,0.2c0-4.3-0.1-7.4-0.4-9.4c3.2,0.1,6.2,0.3,8.9,0.7
			c1,0.1,1.5,0.5,1.5,1.1c0,0.4-0.1,1-0.4,1.6c-0.4,0.7-0.6,2.6-0.6,5.9v0.2h8.6c0-3.8-0.2-7-0.7-9.4c3.3,0.1,6.2,0.3,8.8,0.6
			c1.4,0.2,2.1,0.6,2.1,1.2c0,0.2-0.1,0.7-0.4,1.4c-0.3,0.6-0.5,2.6-0.5,6v0.2l6.9-0.2c0.6,0,1,0.1,1.1,0.2c0.1,0.2,0.2,0.6,0.2,1.2
			v5.9c0,0.7-0.1,1.1-0.2,1.2c-0.1,0.1-0.5,0.2-1.1,0.2c-0.1,0-0.8,0-2.2-0.1c-1.5,0-3.1-0.1-4.8-0.2v1.3l0.1,9.5
			c0,0.6-0.1,1-0.2,1.1c-0.1,0.1-0.5,0.2-1,0.2l-8-0.2v4.2h1.9l11.4-0.2c0.9,0,1.3,0.3,1.3,0.9c4.1-6.2,7.5-15.2,10.4-26.8
			c0.7-2.8,1.1-5.5,1.4-8.2l9.6,2.3c1.2,0.4,1.8,0.9,1.8,1.4c0,0.5-0.3,1.2-1,2.1c-0.5,0.6-1.1,2.2-1.8,4.8c-1.1,4-2.2,7.4-3.2,10.1
			h6.5c1.8-4.7,3.2-8.9,4.2-12.6c0.6-2.3,1-4.6,1.2-7c3.6,0.7,6.5,1.5,8.7,2.3c1.3,0.4,1.9,1,1.9,1.6c0,0.5-0.3,1.1-0.9,1.8
			c-0.6,0.5-1.2,1.9-1.9,4.2c-0.8,2.6-2,5.9-3.5,9.8l7.7-0.3c0.6,0,0.9,0.1,1.1,0.3c0.1,0.1,0.2,0.5,0.2,1.1v7.6
			c0,0.7-0.1,1.1-0.2,1.2c-0.1,0.1-0.5,0.2-1,0.2l-8.5-0.2v11.6l6.7-0.2c0.6,0,1,0.1,1.2,0.2c0.1,0.1,0.2,0.5,0.2,1v8.1
			c0,0.6-0.1,0.9-0.2,1.1c-0.1,0.1-0.5,0.2-1.1,0.2c-0.1,0-0.8,0-2.1-0.1c-1.4-0.1-2.9-0.1-4.6-0.2v12l6.7-0.2
			c0.7,0,1.1,0.1,1.2,0.3c0.1,0.1,0.2,0.5,0.2,1.1v7.9c0,0.6-0.1,0.9-0.2,1c-0.1,0.1-0.5,0.2-1.1,0.2c-0.1,0-0.8,0-2.1-0.1
			c-1.4-0.1-2.9-0.1-4.6-0.2v15l9.5-0.2c0.7,0,1.1,0.1,1.2,0.2c0.1,0.1,0.2,0.5,0.2,1v8.1c0,0.6-0.1,0.9-0.3,1.1
			c-0.1,0.1-0.5,0.2-1.1,0.2l-11.7-0.2h-15.2v3.9c0,0.6-0.1,0.9-0.2,1.1c-0.1,0.1-0.5,0.2-1.1,0.2h-7.3c-0.6,0-0.9-0.1-1.1-0.2
			c-0.1-0.1-0.2-0.5-0.2-1l0.2-13.5v-47.9c-0.3-0.3-0.8-0.7-1.5-1.4c-0.8-0.7-2.3-1.7-4.4-2.8v10.1l0.3,7.5c0,0.7-0.1,1.1-0.2,1.2
			c-0.1,0.1-0.5,0.2-1.1,0.2l-11.4-0.2h-1.8c0,1.1-0.1,2.7-0.2,4.7h1.7l11.3-0.2c0.7,0,1.1,0.1,1.2,0.2c0.1,0.1,0.2,0.5,0.2,1v6
			c0,0.5-0.1,0.8-0.2,0.9c-0.1,0.1-0.5,0.2-1.1,0.2L689,260.1z M672.2,240.2h6v-7.8h-6V240.2z M687.3,213.9v-4.7h-8.6v4.7H687.3z
			 M693.6,240.2v-7.8h-6.2v7.8H693.6z M717.2,233.1h8.2v-11.6h-8.2V233.1z M717.2,255.2h8.2v-12h-8.2V255.2z M717.2,280.4h8.2v-15
			h-8.2V280.4z"/>
		<path class="st1" d="M760.4,269.3c-0.7,1.1-1.3,1.7-1.8,1.7c-0.4,0-0.8-0.6-1.2-1.9c-1.1-3.5-2.4-6.4-3.9-8.5
			c7.8-10.3,13.5-22.3,17-35.9h-1.9l-11,0.2c-0.6,0-1-0.1-1.1-0.3c-0.1-0.1-0.2-0.5-0.2-1.1v-8.1c0-0.7,0.4-1.1,1.3-1.1l11,0.2h2.6
			V207c0-6.8-0.3-12-0.9-15.6c4.4,0.1,8.2,0.4,11.4,0.8c1.3,0.1,1.9,0.5,1.9,1.2c0,0.6-0.2,1.5-0.7,2.5c-0.6,1.1-0.8,4.7-0.8,10.9
			v7.8l10-0.2c0.9,0,1.3,0.4,1.3,1.1v8.1c0,0.6-0.1,1-0.2,1.2c-0.1,0.1-0.5,0.2-1.1,0.2l-9.6-0.2c2.7,7.6,6.9,14.7,12.5,21.5
			c-1.6,2-3,4.5-4.1,7.4c-0.6,1.4-1.1,2.1-1.4,2.1c-0.4,0-0.9-0.6-1.6-1.8c-2.4-4.3-4.5-9-6.2-14.2c0,12.7,0.2,25.9,0.4,39.5
			c0.1,3,0.2,6.8,0.3,11.4c0,2.1,0.1,3.3,0.1,3.5c0,0.7-0.1,1.1-0.2,1.2c-0.1,0.1-0.5,0.2-1.1,0.2H772c-0.6,0-1-0.1-1.1-0.2
			c-0.1-0.2-0.2-0.6-0.2-1.2c0-0.1,0.1-2.8,0.2-7.8c0.4-14.8,0.6-28.6,0.7-41.4C768.8,254,765,262.2,760.4,269.3z M859.5,283.4
			c-2,2.4-3.8,5-5.2,8c-0.9,1.8-1.6,2.7-2.3,2.7c-0.4,0-1.3-0.3-2.6-0.9c-10.4-4.7-18.9-10.2-25.3-16.6c-7.1,7-16.2,12.8-27.4,17.4
			c-1.3,0.6-2.2,0.9-2.7,0.9c-0.6,0-1.3-0.9-2.3-2.7c-1.7-3-3.5-5.3-5.4-6.8c12.4-4,22.5-9.8,30.3-17.4c-4.2-5.7-7.8-12.6-10.9-20.8
			c-0.1-0.3-0.2-0.6-0.2-0.8c0-0.3,0.5-0.7,1.5-1.2l6.5-3.7c0.5-0.3,0.9-0.4,1.1-0.4c0.4,0,0.7,0.4,0.9,1.2c2.3,6.3,5,11.8,8.3,16.6
			c1.6-2.4,3.1-5.3,4.7-8.8c1.4-3.4,2.4-6.7,2.8-9.8c3.9,1.5,7.2,3.1,10,4.8c1.1,0.6,1.6,1.2,1.6,1.7c0,0.7-0.4,1.5-1.3,2.3
			c-0.7,0.7-1.6,2.3-2.6,4.8c-2.1,5.1-4.7,9.8-7.6,14.1C838.2,274.3,847.6,279.4,859.5,283.4z M808,219.8c3.1,1.1,6.1,2.4,8.9,3.8
			c1.1,0.7,1.7,1.3,1.7,1.8c0,0.7-0.4,1.3-1.2,1.9c-0.7,0.6-1.6,1.8-2.7,3.5c-3,5.1-7.2,10.3-12.7,15.5c-1.3,1.2-2.2,1.8-2.5,1.8
			c-0.4,0-1.2-0.8-2.2-2.4c-1.4-2-3.2-3.8-5.5-5.5c5.1-4,9.7-9,13.6-15.1C806.5,223.5,807.3,221.7,808,219.8z M810.6,217.3
			l-15.1,0.2c-0.6,0-1-0.1-1.1-0.2c-0.1-0.1-0.2-0.5-0.2-1v-8.7c0-0.6,0.1-1,0.2-1.1c0.1-0.1,0.5-0.2,1.1-0.2l15.1,0.3h7.3v-3.3
			c0-4.8-0.3-8.9-0.8-12c5,0.1,9.1,0.4,12.4,0.8c1.3,0.1,1.9,0.5,1.9,1.2c0,0.5-0.2,1.3-0.7,2.4c-0.6,1.2-0.9,3.8-0.9,7.7v3.3h10.5
			l15-0.3c0.7,0,1.1,0.1,1.2,0.2c0.1,0.1,0.2,0.5,0.2,1.1v8.7c0,0.6-0.1,0.9-0.3,1.1c-0.1,0.1-0.5,0.2-1.1,0.2l-15-0.2H810.6z
			 M839.5,220.7c5,7.4,11.2,13.3,18.6,17.7c-2.1,2.2-3.8,4.6-5.1,7c-0.8,1.7-1.5,2.5-2.1,2.5c-0.4,0-1.2-0.5-2.4-1.4
			c-7.5-5.8-13.6-12.6-18.2-20.6c-0.3-0.4-0.4-0.6-0.4-0.8c0-0.3,0.4-0.7,1.3-1.2l5.9-3.7c0.7-0.4,1.1-0.6,1.3-0.6
			C838.8,219.8,839.1,220.1,839.5,220.7z"/>
		<path class="st1" d="M971,281.9c-2.3,2.6-4.1,5.7-5.3,9.4c-0.7,2-1.5,2.9-2.3,2.9c-0.5,0-1.4-0.2-2.7-0.6
			c-15.6-5.4-29.1-12.9-40.5-22.5c-11.2,9.4-24.7,16.8-40.5,22.3c-1.7,0.4-2.6,0.7-2.7,0.7c-0.7,0-1.4-0.9-2.2-2.8
			c-1.1-3.2-2.8-6-5.1-8.4c17.5-5.4,31.4-12.1,41.6-20.1c-9.3-10.1-16.7-23.8-22.1-41.2H887l-14.4,0.2c-0.6,0-0.9-0.1-1.1-0.2
			c-0.1-0.1-0.2-0.5-0.2-1v-9.3c0-0.6,0.1-0.9,0.2-1.1c0.1-0.1,0.5-0.2,1-0.2l14.4,0.2h26.1v-5.4c0-5.6-0.3-9.9-0.9-13.1
			c5.7,0.1,9.9,0.4,12.6,0.8c1.2,0,1.8,0.4,1.8,1.2c0,0.4-0.2,1.2-0.7,2.3c-0.4,0.8-0.7,3.6-0.7,8.5v5.7h28l14.4-0.2
			c0.7,0,1.1,0.1,1.2,0.2c0.1,0.1,0.2,0.5,0.2,1v9.3c0,0.6-0.1,0.9-0.2,1.1c-0.2,0.1-0.6,0.2-1.2,0.2l-14.4-0.2h-2.6
			c-4.7,17-11.8,30.7-21.3,41.1C940.2,270.9,954,277.3,971,281.9z M937.3,221.5h-35.8c4.2,13.6,10.5,24.7,18.7,33.2
			C927.9,246.7,933.6,235.7,937.3,221.5z"/>
		<path class="st1" d="M981,238.3c12-10.8,20.7-23.6,26.2-38.4c1.1-2.7,1.8-5.3,2.3-7.9c3.8,1,7.4,2.2,11,3.7c1.3,0.5,1.9,1,1.9,1.7
			c0,0.7-0.4,1.4-1.1,1.9c-0.7,0.6-1.7,2.2-2.8,4.9c-2.2,5.3-4.6,10.2-7.2,14.6v58.1l0.2,17.2c0,0.8-0.4,1.2-1.3,1.2h-9.9
			c-0.6,0-1-0.1-1.2-0.2c-0.1-0.1-0.2-0.5-0.2-0.9l0.2-17.2v-25.7c0-3,0.1-7.9,0.2-14.5c-3.8,4.9-7.2,8.9-10.1,11.8
			c-1.3,1.1-2.1,1.7-2.5,1.7c-0.6,0-1.2-0.8-1.7-2.5C984.5,244.8,983.1,241.7,981,238.3z M1072.2,261.4c2.4,1.8,5.4,3.4,8.8,4.7
			c1.2,0.4,1.9,0.8,2.2,1c0.3,0.3,0.4,0.7,0.4,1.3c0,0.3,0,0.8-0.1,1.7c-0.4,5.8-1.2,10.2-2.4,13.1c-1,2.5-2.4,4.4-4.2,5.7
			c-3.7,2.6-10.6,3.9-20.6,3.9c-10.1,0-16.7-0.8-19.7-2.3c-2.1-1-3.7-2.5-4.6-4.4c-0.9-1.9-1.4-4.6-1.4-8v-71.6
			c0-6-0.2-10.3-0.7-13.1c4.4,0.1,8.5,0.4,12.1,0.8c1.4,0.1,2.2,0.6,2.2,1.5c0,0.5-0.2,1.2-0.7,2.2c-0.5,0.9-0.8,3.5-0.8,7.7v28.4
			c7.1-4.4,14.1-10,21-16.7c2.6-2.3,4.8-4.9,6.7-7.8c3,2.2,5.9,4.7,8.8,7.5c0.9,0.8,1.3,1.6,1.3,2.3c0,0.8-0.6,1.4-1.9,1.8
			c-1.3,0.5-3.3,1.9-5.9,4.3c-9.3,8.3-19.3,15.7-29.9,22v27c0,2.2,0.2,3.7,0.7,4.6c0.5,0.8,1.3,1.4,2.4,1.9
			c1.6,0.5,5.3,0.8,11.3,0.8c5.6,0,9.5-0.9,11.7-2.8C1070.7,277.2,1071.8,271.5,1072.2,261.4z"/>
		<path class="st1" d="M1201.2,240.9c-1.5,1.7-2.9,4.4-4.3,7.9c-0.7,2-1.3,3-1.9,3c-0.2,0-1.1-0.3-2.5-0.8
			c-9-4.1-17.1-9.9-24.3-17.2v8c0,0.6-0.1,0.9-0.2,1.1c-0.1,0.1-0.5,0.2-1.1,0.2l-11.4-0.2h-15.6l-11.3,0.2c-0.6,0-1-0.1-1.1-0.2
			c-0.1-0.1-0.2-0.5-0.2-1v-4.9c-6.9,6.1-15,11.3-24.5,15.8c-1.5,0.6-2.4,0.9-2.7,0.9c-0.5,0-1.2-0.9-2.1-2.7
			c-1.1-2.3-2.6-4.4-4.2-6.3c6.4-2.4,12.2-5.2,17.5-8.7c-1.8-2.4-3.9-4.6-6.1-6.7c-0.4-0.4-0.6-0.7-0.6-0.9c0-0.3,0.3-0.7,1-1.2
			l4.1-3c0.6-0.4,0.9-0.7,1.1-0.7c0.3,0,0.7,0.2,1.2,0.7c2.4,1.9,4.5,4,6.4,6.3c1.9-1.6,3.7-3.2,5.3-4.9c-1.9-2.2-4-4.3-6.3-6.3
			c-0.4-0.3-0.6-0.6-0.6-0.8c0-0.3,0.3-0.7,1-1.2l3.7-3.1c0.6-0.5,1-0.7,1.3-0.7c0.3,0,0.6,0.2,1.1,0.5c2.2,1.7,4.1,3.3,5.7,5
			c2.6-3.4,4.7-6.7,6.5-10h-14.3c-5.4,6.6-11.5,12.4-18.3,17.4c-1.5,1-2.3,1.5-2.6,1.5c-0.4,0-1.2-0.8-2.2-2.5
			c-1.2-1.9-2.7-3.6-4.4-5.1c9.6-5.5,17.4-13,23.4-22.6c1-1.7,2.1-4.1,3.2-7.2c3.4,0.6,6.6,1.3,9.8,2.1c1.1,0.3,1.6,0.8,1.6,1.4
			c0,0.3-0.4,0.9-1.2,1.7c-0.5,0.5-1.4,1.8-2.7,4.1h9.4c1.7,0,2.7-0.1,3.1-0.4c0.9-0.3,1.4-0.4,1.6-0.4c0.9,0,2.4,1,4.4,3.1
			c1,1,1.6,1.7,1.9,2.1c-1.1-2.9-2-5.5-2.6-7.8c-0.1-0.4-0.2-0.6-0.2-0.8c0-0.4,0.4-0.7,1.1-0.9l7.4-1.7c0.4-0.1,0.8-0.2,0.9-0.2
			c0.4,0,0.8,0.4,0.9,1.1c3.1,10.2,7.9,19.1,14.4,26.6c3.8-3.7,7.2-7.9,10.1-12.5h-5.8l-9.8,0.2c-0.6,0-0.9-0.1-1.1-0.2
			c-0.1-0.1-0.2-0.5-0.2-1.1v-7c0-0.7,0.1-1.1,0.2-1.2c0.1-0.1,0.5-0.2,1-0.2l9.8,0.2h8.2c1.3,0,2.2-0.1,2.8-0.3
			c0.6-0.3,1.1-0.4,1.5-0.4c1.1,0,2.7,1.1,4.9,3.2c2.1,2,3.2,3.5,3.2,4.4c0,0.7-0.5,1.4-1.4,2.1c-0.2,0.1-1.5,1.8-3.8,5
			c-3.4,5-7.5,10-12.4,15.1C1184.7,233.3,1192.4,237.7,1201.2,240.9z M1120.6,265.2c1.9,0.8,5.1,2.4,9.4,5c0.9,0.4,1.4,1.1,1.4,1.8
			c0,0.6-0.5,1.2-1.5,1.8c-0.7,0.3-1.6,1.2-2.8,2.5c-4.6,5.3-10.6,9.9-18.1,13.8c-1.1,0.7-1.9,1-2.5,1c-0.7,0-1.5-0.8-2.5-2.5
			c-1.6-2.6-3.3-4.7-5.2-6.2c7.2-3.1,13.3-7.1,18.2-11.9C1118.5,269,1119.7,267.3,1120.6,265.2z M1122.5,261.9l-15.6,0.2
			c-0.6,0-0.9-0.1-1.1-0.2c-0.1-0.1-0.2-0.5-0.2-1v-8c0-0.6,0.1-0.9,0.2-1.1c0.1-0.1,0.5-0.2,1-0.2l15.6,0.2h51.1l15.6-0.2
			c0.6,0,0.9,0.1,1.1,0.2c0.1,0.1,0.2,0.5,0.2,1v8c0,0.6-0.1,0.9-0.2,1c-0.1,0.1-0.5,0.2-1,0.2l-15.6-0.2h-19.7v8.9l0.3,13
			c0,4.1-1.2,7-3.7,8.7c-2,1.4-7.2,2.1-15.7,2.1c-1.9,0-3-0.1-3.3-0.4c-0.3-0.3-0.6-1.1-0.8-2.6c-0.5-3.1-1.4-6.1-2.7-8.8
			c3.1,0.4,6.3,0.7,9.8,0.7c1.8,0,3.1-0.3,3.7-0.9c0.4-0.5,0.7-1.4,0.7-2.7v-18H1122.5z M1148.6,208.4c-0.3,0.2-1.8,2.8-4.7,7.8
			c-3.3,6.1-7.5,11.6-12.5,16.6c1.2,0.1,4,0.1,8.4,0.1h15.6l11.6-0.2c-7.2-7.5-12.9-16.2-17.1-25.9
			C1149.8,207.5,1149.4,208,1148.6,208.4z M1197,281.2c-2,2-3.8,4.4-5.4,7.2c-0.8,1.6-1.6,2.4-2.2,2.4c-0.6,0-1.4-0.3-2.6-1
			c-8.8-4.7-16.1-10.9-21.8-18.5c-0.3-0.4-0.4-0.6-0.4-0.8c0-0.3,0.4-0.7,1.1-1.1l6-3.8c0.6-0.4,1.1-0.6,1.4-0.6
			c0.2,0,0.6,0.2,1,0.7C1179.4,271.4,1187.1,276.6,1197,281.2z"/>
	</g>
</g>
</svg>
