<?xml version="1.0" encoding="UTF-8" standalone="no"?>
<svg
   viewBox="0 0 74.17 45"
   version="1.1"
   id="svg950"
   sodipodi:docname="logo.svg"
   width="74.169998"
   height="45"
   inkscape:version="1.1.2 (0a00cf5339, 2022-02-04, custom)"
   xmlns:inkscape="http://www.inkscape.org/namespaces/inkscape"
   xmlns:sodipodi="http://sodipodi.sourceforge.net/DTD/sodipodi-0.dtd"
   xmlns="http://www.w3.org/2000/svg"
   xmlns:svg="http://www.w3.org/2000/svg">
  <sodipodi:namedview
     id="namedview952"
     pagecolor="#ffffff"
     bordercolor="#666666"
     borderopacity="1.0"
     inkscape:pageshadow="2"
     inkscape:pageopacity="0.0"
     inkscape:pagecheckerboard="0"
     showgrid="false"
     fit-margin-top="0"
     fit-margin-left="0"
     fit-margin-right="0"
     fit-margin-bottom="0"
     inkscape:zoom="5.7849269"
     inkscape:cx="39.239908"
     inkscape:cy="38.548456"
     inkscape:window-width="1084"
     inkscape:window-height="1013"
     inkscape:window-x="816"
     inkscape:window-y="47"
     inkscape:window-maximized="1"
     inkscape:current-layer="svg950" />
  <defs
     id="defs899">
    <style
       id="style897">.ad{fill:#fff;}</style>
  </defs>
  <g
     id="g"
     transform="matrix(1.000064,0,0,1.000064,-1.9207023e-4,-6.0798677e-6)"
     style="fill:#ffffff;fill-opacity:1;fill-rule:nonzero;stroke:none;stroke-opacity:1">
    <path
       id="h"
       class="ad"
       d="m 9.98,24.71 c 2.8,-2.52 7.09,-2.37 9.72,0.34 -0.82,-2.97 -0.68,-6.11 0.4,-9 0.8,-1.94 1.07,-11.3 -7.24,-15.98 2.09,5.53 0.86,11.76 -3.18,16.09 0.93,2.76 1.03,5.74 0.3,8.56 z"
       style="fill:#ffffff;fill-opacity:1;fill-rule:nonzero;stroke:none;stroke-opacity:1" />
    <path
       id="i"
       class="ad"
       d="m 8.87,26.13 c 0,0 3.75,-9.16 -3.76,-15.88 0.72,3.65 0.04,7.44 -1.92,10.61 -1.67,2.69 -5.2,7.62 -1.69,15.79 0.99,-4.33 3.64,-8.11 7.37,-10.52 z"
       style="fill:#ffffff;fill-opacity:1;fill-rule:nonzero;stroke:none;stroke-opacity:1" />
    <path
       id="j"
       class="ad"
       d="m 8.47,27.09 c -3.5,2.44 -5.85,6.22 -6.48,10.44 1.95,3.32 5.1,5.76 8.8,6.83 0.82,-3.35 0.4,-6.89 -1.18,-9.96 C 7.92,32.36 7.48,29.55 8.47,27.09 Z"
       style="fill:#ffffff;fill-opacity:1;fill-rule:nonzero;stroke:none;stroke-opacity:1" />
    <path
       id="k"
       class="ad"
       d="m 11.32,37.28 c 0.65,2.37 0.67,4.86 0.07,7.25 3.42,0.83 7.03,0.38 10.15,-1.25 0,0 -6.62,-1.19 -10.22,-6 z"
       style="fill:#ffffff;fill-opacity:1;fill-rule:nonzero;stroke:none;stroke-opacity:1" />
    <path
       id="l"
       class="ad"
       d="m 10.86,35.48 c 2.86,1.94 6.72,1.46 9.01,-1.13 1.56,2.54 2.39,5.47 2.38,8.45 0,0 -7.69,-0.56 -11.4,-7.32 z"
       style="fill:#ffffff;fill-opacity:1;fill-rule:nonzero;stroke:none;stroke-opacity:1" />
    <path
       id="m"
       class="ad"
       d="m 20.36,34.05 c 1.65,2.51 2.52,5.46 2.5,8.46 5.12,-3.32 7.67,-9.45 6.42,-15.42 -2.09,3.28 -5.24,5.73 -8.92,6.96 z"
       style="fill:#ffffff;fill-opacity:1;fill-rule:nonzero;stroke:none;stroke-opacity:1" />
    <path
       id="n"
       class="ad"
       d="m 20.65,33.3 c 3.6,-1.19 6.59,-3.72 8.36,-7.08 -0.54,-1.86 -1.41,-3.61 -2.56,-5.17 -1.97,-3.08 -2.76,-6.78 -2.21,-10.4 -4.26,4.13 -5.6,10.42 -3.39,15.93 1.05,2.13 0.97,4.65 -0.21,6.71 z"
       style="fill:#ffffff;fill-opacity:1;fill-rule:nonzero;stroke:none;stroke-opacity:1" />
  </g>
  <g
     id="p"
     transform="matrix(0.8958884,0,0,0.90025207,4.8628475,0)"
     style="fill:#ffffff;fill-opacity:1;fill-rule:nonzero;stroke:none;stroke-opacity:1">
    <g
       id="q"
       transform="translate(741.518,735.573)"
       style="fill:#ffffff;fill-opacity:1;fill-rule:nonzero;stroke:none;stroke-opacity:1">
      <g
         id="r"
         transform="translate(-741.518,-735.573)"
         style="fill:#ffffff;fill-opacity:1;fill-rule:nonzero;stroke:none;stroke-opacity:1">
        <path
           class="ad"
           d="M 50.22,12.73 H 48.29 V 2.89 h 0.05 L 50.14,2.52 50.22,2.5 Z M 52.28,1.93 H 46.05 V 0 h 6.62 l -0.02,0.08 -0.36,1.8 v 0.05 z"
           id="path912"
           style="fill:#ffffff;fill-opacity:1;fill-rule:nonzero;stroke:none;stroke-opacity:1" />
      </g>
      <g
         id="s"
         transform="translate(-740.439,-735.053)"
         style="fill:#ffffff;fill-opacity:1;fill-rule:nonzero;stroke:none;stroke-opacity:1">
        <path
           class="ad"
           d="m 56.63,12.91 h -0.44 l 0.02,-0.08 0.36,-1.8 v -0.05 h 0.06 c 0.47,0 0.84,-0.37 0.84,-0.84 V 3.6 h 1.93 v 6.54 c 0,1.52 -1.24,2.76 -2.76,2.76 z M 55.32,12.75 55.26,12.73 C 54.25,12.35 53.51,11.26 53.51,10.15 V 3.6 h 1.93 v 6.54 c 0,0.32 0.17,0.6 0.43,0.73 l 0.05,0.02 -0.02,0.05 -0.56,1.73 -0.02,0.06 z"
           id="path915"
           style="fill:#ffffff;fill-opacity:1;fill-rule:nonzero;stroke:none;stroke-opacity:1" />
      </g>
      <g
         id="t"
         transform="translate(-739.36,-735.053)"
         style="fill:#ffffff;fill-opacity:1;fill-rule:nonzero;stroke:none;stroke-opacity:1">
        <path
           class="ad"
           d="M 62.91,12.73 H 60.98 V 3.6 h 1.93 z M 63.47,5.96 63.5,5.82 63.86,4.02 V 3.99 h 0.03 c 0.47,-0.3 0.75,-0.38 1.2,-0.38 h 1.25 l -0.02,0.08 -0.36,1.8 v 0.05 h -1.14 c -0.5,0 -0.77,0.08 -1.23,0.35 z"
           id="path918"
           style="fill:#ffffff;fill-opacity:1;fill-rule:nonzero;stroke:none;stroke-opacity:1" />
      </g>
      <g
         id="u"
         transform="translate(-738.45,-735.053)"
         style="fill:#ffffff;fill-opacity:1;fill-rule:nonzero;stroke:none;stroke-opacity:1">
        <path
           class="ad"
           d="M 73.16,12.73 H 71.23 V 6.36 c 0,-0.45 -0.38,-0.84 -0.84,-0.84 h -0.62 l 0.02,-0.08 0.36,-1.8 V 3.59 h 0.24 c 1.52,0 2.76,1.24 2.76,2.76 v 6.36 z m -3.96,0 H 67.27 V 3.6 h 1.93 z"
           id="path921"
           style="fill:#ffffff;fill-opacity:1;fill-rule:nonzero;stroke:none;stroke-opacity:1" />
      </g>
    </g>
    <g
       id="v"
       transform="translate(742.081,747.981)"
       style="fill:#ffffff;fill-opacity:1;fill-rule:nonzero;stroke:none;stroke-opacity:1">
      <g
         id="w"
         transform="translate(-741.977,-745.611)"
         style="fill:#ffffff;fill-opacity:1;fill-rule:nonzero;stroke:none;stroke-opacity:1">
        <path
           class="ad"
           d="m 48.69,28.77 h -1.93 v -9.13 h 1.93 z m 0,-10.44 H 46.76 V 16.4 h 1.93 z"
           id="path925"
           style="fill:#ffffff;fill-opacity:1;fill-rule:nonzero;stroke:none;stroke-opacity:1" />
      </g>
      <g
         id="x"
         transform="translate(-741.574,-745.689)"
         style="fill:#ffffff;fill-opacity:1;fill-rule:nonzero;stroke:none;stroke-opacity:1">
        <path
           class="ad"
           d="M 53.99,28.95 H 53.94 C 52.26,28.95 51,27.76 51,26.19 v -3.65 h 0.05 l 1.8,-0.37 0.08,-0.02 v 4.04 c 0,0.47 0.37,0.83 0.83,0.83 h 0.62 L 54.36,27.1 54,28.9 v 0.05 z m -0.01,-7.38 h -4.45 l 0.02,-0.08 0.36,-1.8 v -0.05 h 1.08 v -3.41 h 0.05 l 1.8,-0.37 0.08,-0.02 v 3.79 h 1.45 l -0.02,0.08 -0.36,1.8 v 0.05 z"
           id="path928"
           style="fill:#ffffff;fill-opacity:1;fill-rule:nonzero;stroke:none;stroke-opacity:1" />
      </g>
    </g>
    <g
       id="y"
       transform="translate(741.94,760.53)"
       style="fill:#ffffff;fill-opacity:1;fill-rule:nonzero;stroke:none;stroke-opacity:1">
      <g
         id="a`"
         transform="translate(-741.862,-755.92)"
         style="fill:#ffffff;fill-opacity:1;fill-rule:nonzero;stroke:none;stroke-opacity:1">
        <path
           class="ad"
           d="m 50.43,45 h -1.08 c -1.52,0 -2.76,-1.24 -2.76,-2.76 v -7.56 c 0,-1.52 1.24,-2.76 2.76,-2.76 h 1.16 L 50.49,32 50.13,33.8 v 0.05 h -0.78 c -0.47,0 -0.83,0.37 -0.83,0.84 v 7.56 c 0,0.47 0.37,0.84 0.83,0.84 h 1.08 c 0.47,0 0.83,-0.37 0.83,-0.84 v -7.56 c 0,-0.32 -0.17,-0.6 -0.43,-0.73 l -0.05,-0.02 0.02,-0.05 0.56,-1.73 0.02,-0.06 0.06,0.02 c 1.01,0.38 1.75,1.47 1.75,2.58 v 7.56 c 0,1.52 -1.24,2.76 -2.76,2.76 z"
           id="path932"
           style="fill:#ffffff;fill-opacity:1;fill-rule:nonzero;stroke:none;stroke-opacity:1" />
      </g>
      <g
         id="aa"
         transform="translate(-740.731,-755.374)"
         style="fill:#ffffff;fill-opacity:1;fill-rule:nonzero;stroke:none;stroke-opacity:1">
        <path
           class="ad"
           d="m 58.38,44.82 h -2.13 l 0.07,-0.1 c 0,0 2.06,-3.16 2.06,-5.36 V 35.7 h 1.93 v 3.66 c 0,2.69 -1.88,5.41 -1.9,5.44 l -0.02,0.03 z m -2.47,-0.67 -0.07,-0.12 c -0.93,-1.68 -1.43,-3.3 -1.43,-4.67 V 35.7 h 1.93 v 3.66 c 0,0.83 0.26,1.64 0.52,2.32 v 0.05 l -0.9,2.3 -0.05,0.13 z"
           id="path935"
           style="fill:#ffffff;fill-opacity:1;fill-rule:nonzero;stroke:none;stroke-opacity:1" />
      </g>
      <g
         id="ab"
         transform="translate(-739.704,-755.4)"
         style="fill:#ffffff;fill-opacity:1;fill-rule:nonzero;stroke:none;stroke-opacity:1">
        <path
           class="ad"
           d="m 66.67,44.82 h -2.39 c -1.52,0 -2.76,-1.24 -2.76,-2.76 v -3.78 c 0,-1.6 1.24,-2.76 2.94,-2.76 1.7,0 2.94,1.16 2.94,2.76 v 2.94 h -3.38 l 0.02,-0.08 0.36,-1.8 v -0.05 h 1.08 v -1.02 c 0,-0.55 -0.34,-0.84 -1.02,-0.84 -0.68,0 -1.02,0.28 -1.02,0.84 v 3.78 c 0,0.47 0.37,0.83 0.84,0.83 h 2.78 l -0.02,0.08 -0.36,1.8 v 0.05 z"
           id="path938"
           style="fill:#ffffff;fill-opacity:1;fill-rule:nonzero;stroke:none;stroke-opacity:1" />
      </g>
      <g
         id="ac"
         transform="translate(-738.651,-755.374)"
         style="fill:#ffffff;fill-opacity:1;fill-rule:nonzero;stroke:none;stroke-opacity:1">
        <path
           class="ad"
           d="M 70.73,44.82 H 68.8 v -9.13 h 1.93 z m 0.56,-6.77 0.03,-0.14 0.36,-1.8 v -0.03 h 0.03 c 0.47,-0.3 0.75,-0.38 1.2,-0.38 h 1.25 l -0.02,0.08 -0.36,1.8 v 0.05 h -1.14 c -0.5,0 -0.77,0.08 -1.23,0.35 z"
           id="path941"
           style="fill:#ffffff;fill-opacity:1;fill-rule:nonzero;stroke:none;stroke-opacity:1" />
      </g>
    </g>
  </g>
</svg>
