<?xml version="1.0" encoding="UTF-8" standalone="no"?>
<svg
   viewBox="0 0 27.91 27.909999"
   version="1.1"
   id="svg1028"
   sodipodi:docname="instagram.svg"
   inkscape:version="1.1.2 (0a00cf5339, 2022-02-04, custom)"
   width="27.91"
   height="27.91"
   xmlns:inkscape="http://www.inkscape.org/namespaces/inkscape"
   xmlns:sodipodi="http://sodipodi.sourceforge.net/DTD/sodipodi-0.dtd"
   xmlns="http://www.w3.org/2000/svg"
   xmlns:svg="http://www.w3.org/2000/svg">
  <sodipodi:namedview
     id="namedview1030"
     pagecolor="#ffffff"
     bordercolor="#666666"
     borderopacity="1.0"
     inkscape:pageshadow="2"
     inkscape:pageopacity="0.0"
     inkscape:pagecheckerboard="0"
     showgrid="false"
     inkscape:zoom="2.5333333"
     inkscape:cx="-47.763158"
     inkscape:cy="10.657895"
     inkscape:window-width="1880"
     inkscape:window-height="1013"
     inkscape:window-x="20"
     inkscape:window-y="47"
     inkscape:window-maximized="1"
     inkscape:current-layer="svg1028"
     fit-margin-top="0"
     fit-margin-left="0"
     fit-margin-right="0"
     fit-margin-bottom="0" />
  <defs
     id="defs948">
    <style
       id="style943">.f,.g,.h{fill-rule:evenodd;}.f,.i{fill:#d7000f;}.j{stroke:#eaf6fd;stroke-miterlimit:10;}.j,.k{fill:none;}.g{fill:#fff;}.l{clip-path:url(#e);}.m,.h{fill:#eaf6fd;}</style>
    <clipPath
       id="e">
      <path
         class="k"
         d="m 341.2,77.23 h -21.36 c -1.8,0 -3.27,1.47 -3.27,3.27 v 21.36 c 0,1.8 1.47,3.27 3.27,3.27 h 21.36 c 1.8,0 3.27,-1.47 3.27,-3.27 V 80.5 c 0,-1.8 -1.47,-3.27 -3.27,-3.27 z"
         id="path945" />
    </clipPath>
  </defs>
  <g
     id="g1007"
     style="fill:#fffffe;fill-opacity:1"
     transform="translate(-242.62,-77.22)">
    <path
       class="m"
       d="m 262.37,105.13 h -11.59 c -4.5,0 -8.16,-3.66 -8.16,-8.16 V 85.38 c 0,-4.5 3.66,-8.16 8.16,-8.16 h 11.59 c 4.5,0 8.16,3.66 8.16,8.16 v 11.59 c 0,4.5 -3.66,8.16 -8.16,8.16 z m -11.59,-25.3 c -3.06,0 -5.56,2.49 -5.56,5.56 v 11.59 c 0,3.06 2.49,5.56 5.56,5.56 h 11.59 c 3.06,0 5.56,-2.49 5.56,-5.56 V 85.39 c 0,-3.06 -2.49,-5.56 -5.56,-5.56 z"
       id="path1001"
       style="fill:#fffffe;fill-opacity:1" />
    <path
       class="m"
       d="m 265.77,83.74 c 0,0.96 -0.78,1.74 -1.74,1.74 -0.96,0 -1.74,-0.78 -1.74,-1.74 0,-0.96 0.78,-1.74 1.74,-1.74 0.96,0 1.74,0.78 1.74,1.74 z"
       id="path1003"
       style="fill:#fffffe;fill-opacity:1" />
    <path
       class="m"
       d="m 256.57,98.39 c -3.98,0 -7.21,-3.24 -7.21,-7.21 0,-3.97 3.24,-7.21 7.21,-7.21 3.97,0 7.21,3.24 7.21,7.21 0,3.97 -3.24,7.21 -7.21,7.21 z m 0,-11.82 c -2.54,0 -4.61,2.07 -4.61,4.61 0,2.54 2.07,4.61 4.61,4.61 2.54,0 4.61,-2.07 4.61,-4.61 0,-2.54 -2.07,-4.61 -4.61,-4.61 z"
       id="path1005"
       style="fill:#fffffe;fill-opacity:1" />
  </g>
</svg>
