<?xml version="1.0" encoding="UTF-8" standalone="no"?>
<svg
   viewBox="0 0 27.900391 27.90039"
   version="1.1"
   id="svg909"
   sodipodi:docname="twitter.svg"
   width="27.900391"
   height="27.900391"
   inkscape:version="1.1.2 (0a00cf5339, 2022-02-04, custom)"
   xmlns:inkscape="http://www.inkscape.org/namespaces/inkscape"
   xmlns:sodipodi="http://sodipodi.sourceforge.net/DTD/sodipodi-0.dtd"
   xmlns="http://www.w3.org/2000/svg"
   xmlns:svg="http://www.w3.org/2000/svg">
  <sodipodi:namedview
     id="namedview911"
     pagecolor="#ffffff"
     bordercolor="#666666"
     borderopacity="1.0"
     inkscape:pageshadow="2"
     inkscape:pageopacity="0.0"
     inkscape:pagecheckerboard="0"
     showgrid="false"
     fit-margin-top="0"
     fit-margin-left="0"
     fit-margin-right="0"
     fit-margin-bottom="0"
     inkscape:zoom="2.5333333"
     inkscape:cx="-121.57895"
     inkscape:cy="10.657895"
     inkscape:window-width="1880"
     inkscape:window-height="1013"
     inkscape:window-x="20"
     inkscape:window-y="47"
     inkscape:window-maximized="1"
     inkscape:current-layer="g898" />
  <defs
     id="defs829">
    <style
       id="style824">.f,.g,.h{fill-rule:evenodd;}.f,.i{fill:#d7000f;}.j{stroke:#eaf6fd;stroke-miterlimit:10;}.j,.k{fill:none;}.g{fill:#fff;}.l{clip-path:url(#e);}.m,.h{fill:#eaf6fd;}</style>
    <clipPath
       id="e">
      <path
         class="k"
         d="m 341.2,77.23 h -21.36 c -1.8,0 -3.27,1.47 -3.27,3.27 v 21.36 c 0,1.8 1.47,3.27 3.27,3.27 h 21.36 c 1.8,0 3.27,-1.47 3.27,-3.27 V 80.5 c 0,-1.8 -1.47,-3.27 -3.27,-3.27 z"
         id="path826" />
    </clipPath>
  </defs>
  <g
     class="l"
     clip-path="url(#e)"
     id="g898"
     transform="translate(-316.57031,-77.230469)">
    <path
       id="rect892"
       class="m"
       d="M 316.57031,77.230469 V 105.13086 H 344.4707 V 77.230469 Z m 18.08008,6.009765 c 1.24,0 2.34938,0.540391 3.10938,1.400391 0.94,-0.21 2.37109,-1 2.37109,-1 -0.14,0.78 -1.29992,1.789609 -1.66992,2.099609 0.02,0.04 0.0288,0.07914 0.0488,0.119141 0.67,0.01 2.20117,-0.660156 2.20117,-0.660156 -0.64,1.28 -1.91016,2.201172 -1.91016,2.201172 0.11,1.16 -0.75078,9.01039 -7.05078,11.15039 -6.3,2.139999 -10.63086,-0.919922 -10.63086,-0.919922 3.7,0.23 5.78125,-1.621093 5.78125,-1.621093 -3.12,-0.46 -3.70117,-2.830078 -3.70117,-2.830078 0.69,0.12 1.56055,-0.169922 1.56055,-0.169922 -3.24,-1.44 -2.94922,-4.039063 -2.94922,-4.039063 0.64,0.64 1.67968,0.519531 1.67968,0.519531 -3,-2.37 -1.21093,-5.550781 -1.21093,-5.550781 3.31,3.75 6.85101,4.251016 8.29101,4.291016 -0.05,-0.27 -0.0801,-0.550078 -0.0801,-0.830078 0,-2.3 1.86016,-4.160157 4.16016,-4.160157 z"
       style="fill:#ffffff;fill-opacity:1" />
  </g>
</svg>
