<?xml version="1.0" encoding="UTF-8" standalone="no"?>
<svg
   viewBox="0 0 30.280001 21.1"
   version="1.1"
   id="svg2050"
   sodipodi:docname="youtube.svg"
   inkscape:version="1.1.2 (0a00cf5339, 2022-02-04, custom)"
   width="30.280001"
   height="21.1"
   xmlns:inkscape="http://www.inkscape.org/namespaces/inkscape"
   xmlns:sodipodi="http://sodipodi.sourceforge.net/DTD/sodipodi-0.dtd"
   xmlns="http://www.w3.org/2000/svg"
   xmlns:svg="http://www.w3.org/2000/svg">
  <sodipodi:namedview
     id="namedview2052"
     pagecolor="#ffffff"
     bordercolor="#666666"
     borderopacity="1.0"
     inkscape:pageshadow="2"
     inkscape:pageopacity="0.0"
     inkscape:pagecheckerboard="0"
     showgrid="false"
     inkscape:zoom="3.6059056"
     inkscape:cx="54.909923"
     inkscape:cy="7.210394"
     inkscape:window-width="1880"
     inkscape:window-height="1013"
     inkscape:window-x="20"
     inkscape:window-y="47"
     inkscape:window-maximized="1"
     inkscape:current-layer="g2045"
     fit-margin-top="0"
     fit-margin-left="0"
     fit-margin-right="0"
     fit-margin-bottom="0" />
  <defs
     id="defs1970">
    <style
       id="style1965">.f,.g,.h{fill-rule:evenodd;}.f,.i{fill:#d7000f;}.j{stroke:#eaf6fd;stroke-miterlimit:10;}.j,.k{fill:none;}.g{fill:#fff;}.l{clip-path:url(#e);}.m,.h{fill:#eaf6fd;}</style>
    <clipPath
       id="e">
      <path
         class="k"
         d="m 341.2,77.23 h -21.36 c -1.8,0 -3.27,1.47 -3.27,3.27 v 21.36 c 0,1.8 1.47,3.27 3.27,3.27 h 21.36 c 1.8,0 3.27,-1.47 3.27,-3.27 V 80.5 c 0,-1.8 -1.47,-3.27 -3.27,-3.27 z"
         id="path1967" />
    </clipPath>
  </defs>
  <g
     id="d"
     transform="translate(-203.97,-80.63)">
    <g
       id="g2045">
      <path
         id="path2041"
         class="g"
         d="m 15.140625,0 c -3.78,0 -7.5898438,-7.8125e-5 -11.3398438,0.41992188 -1.58,0.17 -2.90148432,1.36070312 -3.27148432,2.97070312 C -7.03125e-4,5.690625 0,8.1907813 0,10.550781 c 0,2.36 -7.03125e-4,4.870156 0.52929688,7.160157 0.37,1.599999 1.68148432,2.788749 3.27148432,2.96875 3.75,0.42 7.5598438,0.419921 11.3398438,0.419921 3.78,0 7.589844,7.9e-5 11.339844,-0.419921 1.58,-0.170001 2.899531,-1.358751 3.269531,-2.96875 0.53,-2.3 0.529297,-4.800157 0.529297,-7.160157 h -0.0098 C 30.269531,8.1907813 30.28,5.680625 29.75,3.390625 29.38,1.790625 28.060469,0.59992188 26.480469,0.41992188 22.730469,-7.8125e-5 18.920625,0 15.140625,0 Z m -4.089844,4.6992188 10.128907,5.8515622 -10.128907,5.84961 z"
         transform="translate(203.97,80.63)"
         style="fill:#ffffff;fill-opacity:1" />
    </g>
  </g>
</svg>
